<svg width="970" height="191" viewBox="0 0 970 191" fill="none" xmlns="http://www.w3.org/2000/svg">
  <path
    d="M237.375 143V125.5H281.125L289.875 116.75H237.375V90.5L254.875 73H307.375V90.5H263.625L254.875 99.25H307.375V125.5L289.875 143H237.375ZM319.625 143V73H337.125V125.5H363.375L372.125 116.75V73H389.625V125.5L372.125 143H319.625ZM401.875 143V73H454.375L471.875 90.5V116.75H428.125V99.25H454.375L445.625 90.5H419.375V143H401.875ZM510.375 116.75V99.25H554.125V116.75H510.375ZM484.125 143V73H554.125V90.5H501.625V125.5H554.125V143H484.125ZM614.5 143L597 125.5H618.875L636.375 143H614.5ZM618.875 99.25L610.125 90.5H583.875V99.25H618.875ZM566.375 143V73H618.875L636.375 90.5V116.75H583.875V143H566.375ZM696.75 125.5L688 116.75H674.875V99.25H688L696.75 90.5H666.125V125.5H696.75ZM648.625 143V73H718.625V94.875L705.5 108L718.625 121.125V143H648.625ZM774.625 125.5L783.375 116.75V90.5H757.125L748.375 99.25V125.5H774.625ZM730.875 143V90.5L748.375 73H800.875V125.5L783.375 143H730.875ZM839.375 143V99.25H856.875V143H839.375ZM813.125 90.5V73H883.125V90.5H813.125ZM895.375 143V125.5H939.125L947.875 116.75H895.375V90.5L912.875 73H965.375V90.5H921.625L912.875 99.25H965.375V125.5L947.875 143H895.375Z"
    fill="white" />
  <path
    d="M17.2955 151.649C17.4293 111.745 40.9014 78.5895 67.5587 63.3953C68.0487 64.1046 68.5966 64.7521 69.1713 65.3346C71.1692 67.3598 73.763 68.9086 76.4948 70.08C81.9797 72.4319 89.1391 73.7403 96.7332 73.7403C104.327 73.7403 111.487 72.4319 116.972 70.08C119.703 68.9086 122.297 67.3598 124.295 65.3346C125.117 64.5017 125.884 63.5359 126.505 62.4465C153.14 77.0594 176.148 110.275 176.214 149.414C176.189 149.477 176.055 149.975 175.439 150.981C174.647 152.275 173.347 153.94 171.472 155.874C167.734 159.728 162.121 164.231 154.95 168.523C140.609 177.108 120.598 184.522 97.9556 184.522C75.2182 184.522 54.5294 177.512 39.5364 169.389C32.0411 165.328 26.1221 161.071 22.1697 157.431C20.1839 155.603 18.8174 154.043 17.9956 152.851C17.541 152.191 17.3601 151.8 17.2955 151.649ZM64.3237 136.325H131.595C133.973 136.372 136.337 135.949 138.551 135.079C140.79 134.199 142.83 132.88 144.552 131.2C146.274 129.52 147.642 127.512 148.576 125.295C149.511 123.078 149.992 120.696 149.992 118.291C149.992 115.885 149.511 113.503 148.576 111.286C147.642 109.069 146.274 107.062 144.552 105.381C142.83 103.701 140.79 102.382 138.551 101.502C136.337 100.632 133.973 100.209 131.595 100.256H64.3235C61.9456 100.209 59.5814 100.632 57.3673 101.502C55.1282 102.382 53.0878 103.701 51.366 105.381C49.6443 107.062 48.2761 109.069 47.3419 111.286C46.4077 113.503 45.9265 115.885 45.9265 118.291C45.9265 120.696 46.4077 123.078 47.3419 125.295C48.2761 127.512 49.6443 129.52 51.366 131.2C53.0878 132.88 55.1282 134.199 57.3673 135.079C59.5815 135.949 61.9457 136.372 64.3237 136.325Z"
    stroke="white" stroke-width="12" />
  <path
    d="M17.2955 151.649C17.4293 111.745 40.9014 78.5895 67.5587 63.3953C68.0487 64.1046 68.5966 64.7521 69.1713 65.3346C71.1692 67.3598 73.763 68.9086 76.4948 70.08C81.9797 72.4319 89.1391 73.7403 96.7332 73.7403C104.327 73.7403 111.487 72.4319 116.972 70.08C119.703 68.9086 122.297 67.3598 124.295 65.3346C125.117 64.5017 125.884 63.5359 126.505 62.4465C153.14 77.0594 176.148 110.275 176.214 149.414C176.189 149.477 176.055 149.975 175.439 150.981C174.647 152.275 173.347 153.94 171.472 155.874C167.734 159.728 162.121 164.231 154.95 168.523C140.609 177.108 120.598 184.522 97.9556 184.522C75.2182 184.522 54.5294 177.512 39.5364 169.389C32.0411 165.328 26.1221 161.071 22.1697 157.431C20.1839 155.603 18.8174 154.043 17.9956 152.851C17.541 152.191 17.3601 151.8 17.2955 151.649ZM64.3237 136.325H131.595C133.973 136.372 136.337 135.949 138.551 135.079C140.79 134.199 142.83 132.88 144.552 131.2C146.274 129.52 147.642 127.512 148.576 125.295C149.511 123.078 149.992 120.696 149.992 118.291C149.992 115.885 149.511 113.503 148.576 111.286C147.642 109.069 146.274 107.062 144.552 105.381C142.83 103.701 140.79 102.382 138.551 101.502C136.337 100.632 133.973 100.209 131.595 100.256H64.3235C61.9456 100.209 59.5814 100.632 57.3673 101.502C55.1282 102.382 53.0878 103.701 51.366 105.381C49.6443 107.062 48.2761 109.069 47.3419 111.286C46.4077 113.503 45.9265 115.885 45.9265 118.291C45.9265 120.696 46.4077 123.078 47.3419 125.295C48.2761 127.512 49.6443 129.52 51.366 131.2C53.0878 132.88 55.1282 134.199 57.3673 135.079C59.5815 135.949 61.9457 136.372 64.3237 136.325Z"
    stroke="white" stroke-width="12" stroke-miterlimit="10" />
  <path
    d="M100.953 23.2574L97.5262 24.6739L94.0997 23.2574C92.1816 22.4644 90.5979 21.0308 89.6185 19.2008C88.6392 17.3709 88.3248 15.2579 88.729 13.2222C89.1333 11.1864 90.231 9.3538 91.8352 8.03682C93.4394 6.71984 95.4506 6 97.5262 6C99.6017 6 101.613 6.71984 103.217 8.03682C104.821 9.3538 105.919 11.1864 106.323 13.2222C106.727 15.2579 106.413 17.3709 105.434 19.2008C104.454 21.0308 102.871 22.4644 100.953 23.2574ZM97.0728 31.6789L97.5266 30.8483L97.977 31.6744L110.067 53.849C108.162 54.9495 104.396 56.3642 97.5119 56.3642C90.3824 56.3642 86.6585 55.0442 84.8556 54.0413L97.0728 31.6789Z"
    stroke="white" stroke-width="12" />
  <path
    d="M100.953 23.2574L97.5262 24.6739L94.0997 23.2574C92.1816 22.4644 90.5979 21.0308 89.6185 19.2008C88.6392 17.3709 88.3248 15.2579 88.729 13.2222C89.1333 11.1864 90.231 9.3538 91.8352 8.03682C93.4394 6.71984 95.4506 6 97.5262 6C99.6017 6 101.613 6.71984 103.217 8.03682C104.821 9.3538 105.919 11.1864 106.323 13.2222C106.727 15.2579 106.413 17.3709 105.434 19.2008C104.454 21.0308 102.871 22.4644 100.953 23.2574ZM97.0728 31.6789L97.5266 30.8483L97.977 31.6744L110.067 53.849C108.162 54.9495 104.396 56.3642 97.5119 56.3642C90.3824 56.3642 86.6585 55.0442 84.8556 54.0413L97.0728 31.6789Z"
    stroke="white" stroke-width="12" stroke-miterlimit="10" />
  <mask id="path-6-inside-1_113_16" fill="white">
    <path
      d="M172.535 102.596C187.74 117.5 184.087 150.19 184.437 150.19C191.114 150.19 193.952 140.675 193.952 140.675V121.611C193.952 112.789 172.535 102.596 172.535 102.596ZM0 121.611V140.654C0 140.654 2.85938 150.169 9.52173 150.169C9.87201 150.169 6.212 117.479 21.4167 102.574C21.4167 102.596 0 112.789 0 121.611Z" />
  </mask>
  <path
    d="M172.535 102.596L177.692 91.7604L164.135 111.165L172.535 102.596ZM193.952 140.675L205.451 144.105L205.952 142.427V140.675H193.952ZM0 140.654H-12V142.418L-11.4923 144.108L0 140.654ZM21.4167 102.574H33.4167V74.0073L13.0165 94.0048L21.4167 102.574ZM164.135 111.165C168.582 115.524 171.147 123.75 172.119 133.209C172.57 137.599 172.62 141.644 172.569 144.647C172.544 146.144 172.495 147.355 172.458 148.28C172.442 148.683 172.421 149.21 172.414 149.632C172.412 149.789 172.404 150.275 172.438 150.831C172.449 151.008 172.495 151.833 172.725 152.841C172.817 153.241 173.132 154.595 174.002 156.122C174.632 157.229 177.761 162.19 184.437 162.19V138.19C191.108 138.19 194.231 143.147 194.857 144.246C195.723 145.766 196.034 147.107 196.122 147.492C196.345 148.468 196.386 149.245 196.393 149.36C196.409 149.621 196.411 149.813 196.411 149.877C196.412 149.958 196.411 150.007 196.411 150.007C196.411 150.011 196.411 149.996 196.413 149.955C196.414 149.915 196.415 149.861 196.418 149.79C196.423 149.644 196.43 149.466 196.439 149.233C196.476 148.312 196.536 146.853 196.566 145.052C196.627 141.46 196.574 136.4 195.994 130.755C194.903 120.143 191.693 104.572 180.935 94.0262L164.135 111.165ZM184.437 162.19C194.049 162.19 199.565 155.353 201.763 151.966C203.046 149.991 203.929 148.106 204.487 146.764C204.773 146.075 204.992 145.483 205.149 145.032C205.228 144.806 205.292 144.612 205.342 144.457C205.367 144.379 205.388 144.31 205.407 144.252C205.416 144.222 205.424 144.195 205.431 144.171C205.435 144.159 205.439 144.147 205.442 144.136C205.443 144.131 205.445 144.125 205.447 144.12C205.447 144.118 205.448 144.114 205.449 144.113C205.45 144.109 205.451 144.105 193.952 140.675C182.452 137.246 182.453 137.242 182.454 137.238C182.455 137.237 182.456 137.234 182.457 137.231C182.458 137.227 182.459 137.222 182.461 137.218C182.463 137.209 182.466 137.201 182.468 137.194C182.473 137.178 182.477 137.165 182.48 137.154C182.487 137.131 182.492 137.116 182.495 137.108C182.5 137.092 182.497 137.102 182.485 137.136C182.46 137.206 182.406 137.357 182.321 137.56C182.138 138.003 181.895 138.496 181.633 138.899C181.341 139.348 181.279 139.297 181.601 139.059C182.043 138.731 183.059 138.19 184.437 138.19V162.19ZM205.952 140.675V121.611H181.952V140.675H205.952ZM205.952 121.611C205.952 114.787 202.035 109.635 199.462 106.821C196.56 103.647 193.03 100.945 190.004 98.8808C186.894 96.7601 183.849 95.0014 181.621 93.7878C180.494 93.1744 179.548 92.6845 178.868 92.341C178.527 92.1689 178.252 92.0327 178.053 91.9351C177.953 91.8863 177.873 91.8472 177.812 91.8179C177.782 91.8033 177.757 91.7912 177.737 91.7816C177.726 91.7768 177.718 91.7726 177.71 91.7691C177.707 91.7673 177.703 91.7657 177.7 91.7643C177.699 91.7635 177.697 91.7626 177.696 91.7622C177.694 91.7613 177.692 91.7604 172.535 102.596C167.378 113.431 167.376 113.43 167.374 113.429C167.374 113.429 167.372 113.428 167.372 113.428C167.37 113.427 167.368 113.426 167.367 113.426C167.365 113.425 167.364 113.424 167.364 113.425C167.365 113.425 167.37 113.427 167.381 113.432C167.401 113.442 167.441 113.461 167.498 113.489C167.612 113.546 167.797 113.637 168.043 113.761C168.534 114.009 169.26 114.385 170.142 114.865C171.929 115.838 174.238 117.179 176.483 118.709C178.81 120.297 180.635 121.796 181.749 123.015C183.192 124.593 181.952 124.024 181.952 121.611H205.952ZM-12 121.611V140.654H12V121.611H-12ZM0 140.654C-11.4923 144.108 -11.4912 144.111 -11.49 144.115C-11.4897 144.116 -11.4885 144.12 -11.4878 144.123C-11.4862 144.128 -11.4846 144.133 -11.483 144.138C-11.4797 144.149 -11.4761 144.161 -11.4724 144.173C-11.465 144.197 -11.4567 144.224 -11.4476 144.253C-11.4293 144.312 -11.4076 144.38 -11.3825 144.458C-11.3322 144.613 -11.2677 144.807 -11.1885 145.033C-11.0309 145.482 -10.8108 146.073 -10.5238 146.761C-9.96483 148.101 -9.07899 149.984 -7.7959 151.956C-5.60164 155.328 -0.0842932 162.169 9.52173 162.169V138.169C10.9092 138.169 11.9264 138.714 12.3631 139.037C12.681 139.272 12.6156 139.32 12.3209 138.867C12.0563 138.46 11.8109 137.964 11.6256 137.52C11.5404 137.316 11.485 137.164 11.4603 137.093C11.4483 137.059 11.4448 137.048 11.4499 137.064C11.4525 137.072 11.4574 137.087 11.4644 137.109C11.4679 137.12 11.472 137.134 11.4766 137.149C11.4789 137.156 11.4814 137.164 11.484 137.173C11.4853 137.177 11.4867 137.182 11.488 137.186C11.4887 137.189 11.4898 137.192 11.4901 137.193C11.4912 137.197 11.4923 137.2 0 140.654ZM9.52173 162.169C16.199 162.169 19.3275 157.207 19.9579 156.099C20.8277 154.571 21.1425 153.217 21.234 152.817C21.4642 151.809 21.5103 150.984 21.5211 150.807C21.5551 150.251 21.547 149.765 21.5445 149.608C21.5378 149.186 21.5163 148.659 21.5002 148.256C21.4633 147.331 21.4137 146.12 21.3882 144.623C21.3369 141.62 21.3858 137.576 21.8362 133.185C22.8064 123.726 25.3708 115.502 29.817 111.144L13.0165 94.0048C2.25792 104.551 -0.950015 120.124 -2.03855 130.736C-2.61757 136.381 -2.66964 141.441 -2.60832 145.033C-2.57757 146.834 -2.51744 148.293 -2.48066 149.214C-2.47134 149.447 -2.46433 149.626 -2.45918 149.771C-2.45668 149.842 -2.45497 149.896 -2.45383 149.936C-2.45266 149.977 -2.45243 149.992 -2.45249 149.988C-2.4525 149.988 -2.45335 149.939 -2.45267 149.858C-2.45214 149.795 -2.45004 149.602 -2.43409 149.342C-2.42705 149.227 -2.38641 148.449 -2.16337 147.473C-2.07553 147.088 -1.7648 145.746 -0.899452 144.226C-0.273541 143.127 2.84991 138.169 9.52173 138.169V162.169ZM9.41675 102.574C10.3445 97.9476 13.6348 93.4397 14.3272 92.8924C14.6101 92.6915 15.0529 92.4008 15.2083 92.3052C15.4597 92.1533 15.6621 92.0442 15.7015 92.0229C15.8306 91.953 15.9319 91.9015 15.9427 91.896C15.9923 91.8707 16.0259 91.854 16.0048 91.8645C15.9588 91.8874 15.9496 91.8919 15.8337 91.9495C15.6548 92.0385 15.3897 92.1709 15.054 92.3417C14.3844 92.6825 13.4428 93.1716 12.3188 93.7854C10.0957 94.9995 7.05294 96.7591 3.94433 98.8805C0.919309 100.945 -2.60999 103.648 -5.51075 106.821C-8.08284 109.635 -12 114.787 -12 121.611H12C12 124.024 10.7599 124.593 12.2035 123.014C13.3184 121.794 15.1433 120.294 17.4724 118.704C19.718 117.172 22.0294 115.828 23.822 114.849C24.7058 114.366 25.4374 113.987 25.939 113.731C26.1889 113.604 26.3839 113.507 26.5188 113.44C26.5597 113.419 26.6708 113.364 26.7058 113.347C26.7252 113.337 26.7896 113.305 26.8597 113.269C26.8808 113.259 26.9899 113.203 27.1242 113.13C27.1662 113.108 27.3706 112.997 27.6233 112.845C27.7793 112.749 28.2226 112.458 28.5058 112.256C29.1986 111.709 32.489 107.201 33.4167 102.574H9.41675Z"
    fill="white" mask="url(#path-6-inside-1_113_16)" />
  <mask id="path-8-inside-2_113_16" fill="white">
    <path
      d="M172.535 102.596C187.74 117.5 184.087 150.19 184.437 150.19C191.114 150.19 193.952 140.675 193.952 140.675V121.611C193.952 112.789 172.535 102.596 172.535 102.596ZM0 121.611V140.654C0 140.654 2.85938 150.169 9.52173 150.169C9.87201 150.169 6.212 117.479 21.4167 102.574C21.4167 102.596 0 112.789 0 121.611Z" />
  </mask>
  <path
    d="M172.535 102.596L177.692 91.7604L112.859 60.9018L164.135 111.165L172.535 102.596ZM193.952 140.675L205.451 144.105L205.952 142.427V140.675H193.952ZM0 140.654H-12V142.418L-11.4923 144.108L0 140.654ZM21.4167 102.574H33.4167V74.0073L13.0165 94.0048L21.4167 102.574ZM164.135 111.165C168.582 115.524 171.147 123.75 172.119 133.209C172.57 137.599 172.62 141.644 172.569 144.647C172.544 146.144 172.495 147.355 172.458 148.28C172.442 148.683 172.421 149.21 172.414 149.632C172.412 149.789 172.404 150.275 172.438 150.831C172.449 151.008 172.495 151.833 172.725 152.841C172.817 153.241 173.132 154.595 174.002 156.122C174.632 157.229 177.761 162.19 184.437 162.19V138.19C191.108 138.19 194.231 143.147 194.857 144.246C195.723 145.766 196.034 147.107 196.122 147.492C196.345 148.468 196.386 149.245 196.393 149.36C196.409 149.621 196.411 149.813 196.411 149.877C196.412 149.958 196.411 150.007 196.411 150.007C196.411 150.011 196.411 149.996 196.413 149.955C196.414 149.915 196.415 149.861 196.418 149.79C196.423 149.644 196.43 149.466 196.439 149.233C196.476 148.312 196.536 146.853 196.566 145.052C196.627 141.46 196.574 136.4 195.994 130.755C194.903 120.143 191.693 104.572 180.935 94.0262L164.135 111.165ZM184.437 162.19C194.049 162.19 199.565 155.353 201.763 151.966C203.046 149.991 203.929 148.106 204.487 146.764C204.773 146.075 204.992 145.483 205.149 145.032C205.228 144.806 205.292 144.612 205.342 144.457C205.367 144.379 205.388 144.31 205.407 144.252C205.416 144.222 205.424 144.195 205.431 144.171C205.435 144.159 205.439 144.147 205.442 144.136C205.443 144.131 205.445 144.125 205.447 144.12C205.447 144.118 205.448 144.114 205.449 144.113C205.45 144.109 205.451 144.105 193.952 140.675C182.452 137.246 182.453 137.242 182.454 137.238C182.455 137.237 182.456 137.234 182.457 137.231C182.458 137.227 182.459 137.222 182.461 137.218C182.463 137.209 182.466 137.201 182.468 137.194C182.473 137.178 182.477 137.165 182.48 137.154C182.487 137.131 182.492 137.116 182.495 137.108C182.5 137.092 182.497 137.102 182.485 137.136C182.46 137.206 182.406 137.357 182.321 137.56C182.138 138.003 181.895 138.496 181.633 138.899C181.341 139.348 181.279 139.297 181.601 139.059C182.043 138.731 183.059 138.19 184.437 138.19V162.19ZM205.952 140.675V121.611H181.952V140.675H205.952ZM205.952 121.611C205.952 114.787 202.035 109.635 199.462 106.821C196.56 103.647 193.03 100.945 190.004 98.8808C186.894 96.7601 183.849 95.0014 181.621 93.7878C180.494 93.1744 179.548 92.6845 178.868 92.341C178.527 92.1689 178.252 92.0327 178.053 91.9351C177.953 91.8863 177.873 91.8472 177.812 91.8179C177.782 91.8033 177.757 91.7912 177.737 91.7816C177.726 91.7768 177.718 91.7726 177.71 91.7691C177.707 91.7673 177.703 91.7657 177.7 91.7643C177.699 91.7635 177.697 91.7626 177.696 91.7622C177.694 91.7613 177.692 91.7604 172.535 102.596C167.378 113.431 167.376 113.43 167.374 113.429C167.374 113.429 167.372 113.428 167.372 113.428C167.37 113.427 167.368 113.426 167.367 113.426C167.365 113.425 167.364 113.424 167.364 113.425C167.365 113.425 167.37 113.427 167.381 113.432C167.401 113.442 167.441 113.461 167.498 113.489C167.612 113.546 167.797 113.637 168.043 113.761C168.534 114.009 169.26 114.385 170.142 114.865C171.929 115.838 174.238 117.179 176.483 118.709C178.81 120.297 180.635 121.796 181.749 123.015C183.192 124.593 181.952 124.024 181.952 121.611H205.952ZM-12 121.611V140.654H12V121.611H-12ZM0 140.654C-11.4923 144.108 -11.4912 144.111 -11.49 144.115C-11.4897 144.116 -11.4885 144.12 -11.4878 144.123C-11.4862 144.128 -11.4846 144.133 -11.483 144.138C-11.4797 144.149 -11.4761 144.161 -11.4724 144.173C-11.465 144.197 -11.4567 144.224 -11.4476 144.253C-11.4293 144.312 -11.4076 144.38 -11.3825 144.458C-11.3322 144.613 -11.2677 144.807 -11.1885 145.033C-11.0309 145.482 -10.8108 146.073 -10.5238 146.761C-9.96483 148.101 -9.07899 149.984 -7.7959 151.956C-5.60164 155.328 -0.0842932 162.169 9.52173 162.169V138.169C10.9092 138.169 11.9264 138.714 12.3631 139.037C12.681 139.272 12.6156 139.32 12.3209 138.867C12.0563 138.46 11.8109 137.964 11.6256 137.52C11.5404 137.316 11.485 137.164 11.4603 137.093C11.4483 137.059 11.4448 137.048 11.4499 137.064C11.4525 137.072 11.4574 137.087 11.4644 137.109C11.4679 137.12 11.472 137.134 11.4766 137.149C11.4789 137.156 11.4814 137.164 11.484 137.173C11.4853 137.177 11.4867 137.182 11.488 137.186C11.4887 137.189 11.4898 137.192 11.4901 137.193C11.4912 137.197 11.4923 137.2 0 140.654ZM9.52173 162.169C16.199 162.169 19.3275 157.207 19.9579 156.099C20.8277 154.571 21.1425 153.217 21.234 152.817C21.4642 151.809 21.5103 150.984 21.5211 150.807C21.5551 150.251 21.547 149.765 21.5445 149.608C21.5378 149.186 21.5163 148.659 21.5002 148.256C21.4633 147.331 21.4137 146.12 21.3882 144.623C21.3369 141.62 21.3858 137.576 21.8362 133.185C22.8064 123.726 25.3708 115.502 29.817 111.144L13.0165 94.0048C2.25792 104.551 -0.950015 120.124 -2.03855 130.736C-2.61757 136.381 -2.66964 141.441 -2.60832 145.033C-2.57757 146.834 -2.51744 148.293 -2.48066 149.214C-2.47134 149.447 -2.46433 149.626 -2.45918 149.771C-2.45668 149.842 -2.45497 149.896 -2.45383 149.936C-2.45266 149.977 -2.45243 149.992 -2.45249 149.988C-2.4525 149.988 -2.45335 149.939 -2.45267 149.858C-2.45214 149.795 -2.45004 149.602 -2.43409 149.342C-2.42705 149.227 -2.38641 148.449 -2.16337 147.473C-2.07553 147.088 -1.7648 145.746 -0.899452 144.226C-0.273541 143.127 2.84991 138.169 9.52173 138.169V162.169ZM9.41675 102.574C10.3445 97.9476 13.6348 93.4397 14.3272 92.8924C14.6101 92.6915 15.0529 92.4008 15.2083 92.3052C15.4597 92.1533 15.6621 92.0442 15.7015 92.0229C15.8306 91.953 15.9319 91.9015 15.9427 91.896C15.9923 91.8707 16.0259 91.854 16.0048 91.8645C15.9588 91.8874 15.9496 91.8919 15.8337 91.9495C15.6548 92.0385 15.3897 92.1709 15.054 92.3417C14.3844 92.6825 13.4428 93.1716 12.3188 93.7854C10.0957 94.9995 7.05294 96.7591 3.94433 98.8805C0.919309 100.945 -2.60999 103.648 -5.51075 106.821C-8.08284 109.635 -12 114.787 -12 121.611H12C12 124.024 10.7599 124.593 12.2035 123.014C13.3184 121.794 15.1433 120.294 17.4724 118.704C19.718 117.172 22.0294 115.828 23.822 114.849C24.7058 114.366 25.4374 113.987 25.939 113.731C26.1889 113.604 26.3839 113.507 26.5188 113.44C26.5597 113.419 26.6708 113.364 26.7058 113.347C26.7252 113.337 26.7896 113.305 26.8597 113.269C26.8808 113.259 26.9899 113.203 27.1242 113.13C27.1662 113.108 27.3706 112.997 27.6233 112.845C27.7793 112.749 28.2226 112.458 28.5058 112.256C29.1986 111.709 32.489 107.201 33.4167 102.574H9.41675Z"
    fill="white" mask="url(#path-8-inside-2_113_16)" />
</svg>