<svg width="211" height="52" viewBox="0 0 211 52" fill="none" xmlns="http://www.w3.org/2000/svg">
  <g clip-path="url(#clip0_810_701)">
    <path fill-rule="evenodd" clip-rule="evenodd"
      d="M43.4 8.06679L43.6667 9.73346C43.8667 11.2668 43.9667 12.8001 43.9333 14.3668C43.9333 17.8001 43.5333 21.2001 42.7333 24.5335C41.6667 29.0335 39.8 33.3335 37.2333 37.2001C34.2667 41.6001 29.9667 45.9001 23.7333 49.4335L22.9667 49.8668L22.2 49.4335C15.9667 45.9668 11.6667 41.6335 8.7 37.2001C6.1 33.3335 4.26667 29.0668 3.2 24.5335C2.4 21.2001 2 17.8001 2 14.3668C2 12.8335 2.06667 11.2668 2.26667 9.73346L2.5 8.06679C2.53333 7.93346 2.53333 7.80013 2.5 7.66679C2.46667 7.53346 2.43333 7.40013 2.33333 7.30013C2.26667 7.20013 2.16667 7.10013 2.06667 7.03346C1.96667 6.9668 1.83333 6.93346 1.73333 6.90013C1.6 6.86679 1.46667 6.86679 1.33333 6.90013C1.2 6.93346 1.06667 7.00013 0.966667 7.06679C0.866667 7.13346 0.766666 7.23346 0.699999 7.33346C0.633333 7.46679 0.599999 7.60013 0.566666 7.73346L0.3 9.40013C0.1 11.0335 0 12.7001 0 14.3668C0 17.9668 0.433334 21.5335 1.26667 25.0335C1.83333 27.4001 2.6 29.7335 3.56667 31.9668C4.53333 34.2001 5.7 36.3335 7.06667 38.3668C10.2 43.0335 14.7333 47.6001 21.2667 51.2001L22.5 51.9001C22.6667 51.9668 22.8333 52.0001 23 52.0001C23.1667 52.0001 23.3333 51.9668 23.5 51.9001L24.7333 51.2001C31.2333 47.5668 35.8 43.0001 38.9333 38.3668C41.6667 34.3001 43.6333 29.7668 44.7333 25.0335C45.5667 21.5335 45.9667 17.9668 45.9667 14.3668C45.9667 12.7001 45.8667 11.0335 45.6667 9.3668L45.4 7.70013C45.3667 7.5668 45.3333 7.43346 45.2667 7.30013C45.2 7.20013 45.1 7.10013 45 7.03346C44.9 6.9668 44.7667 6.90013 44.6333 6.8668C44.5 6.83346 44.3667 6.83346 44.2333 6.8668C44.1 6.90013 43.9667 6.93346 43.8333 7.00013C43.7333 7.06679 43.6333 7.1668 43.5667 7.2668C43.5 7.3668 43.4333 7.50013 43.4 7.63346V8.06679Z"
      fill="white" />
    <path fill-rule="evenodd" clip-rule="evenodd"
      d="M8.10016 6.93314L23.0335 2.23314L38.2668 7.03314C38.4002 7.06647 38.5335 7.06647 38.6668 7.06647C38.8002 7.06647 38.9335 7.03314 39.0668 6.96647C39.2002 6.8998 39.3002 6.83314 39.4002 6.69981C39.5002 6.59981 39.5668 6.46647 39.5668 6.33314C39.6002 6.1998 39.6002 6.06647 39.6002 5.93314C39.6002 5.7998 39.5668 5.66647 39.5002 5.53314C39.4335 5.39981 39.3668 5.29981 39.2668 5.19981C39.1668 5.09981 39.0335 5.03314 38.9002 5.03314L23.3335 0.0998047C23.1335 0.033138 22.9335 0.033138 22.7335 0.0998047L7.5335 4.8998C7.40016 4.93314 7.30016 4.9998 7.16683 5.06647C7.06683 5.16647 6.96683 5.26647 6.9335 5.3998C6.86683 5.53314 6.8335 5.66647 6.8335 5.7998C6.8335 5.93314 6.8335 6.06647 6.86683 6.19981C6.90016 6.33314 6.96683 6.46647 7.0335 6.56647C7.10016 6.66647 7.2335 6.76647 7.36683 6.83314C7.46683 6.8998 7.60016 6.93314 7.76683 6.93314C7.8335 6.96647 7.96683 6.96647 8.10016 6.93314Z"
      fill="white" />
    <path fill-rule="evenodd" clip-rule="evenodd"
      d="M0.733564 8.36689L22.1002 51.4335C22.1669 51.6002 22.3002 51.7336 22.4336 51.8336C22.7669 52.0336 23.1669 52.0336 23.5002 51.8336C23.6669 51.7336 23.8002 51.6002 23.9002 51.4335L36.9336 26.2669L36.9669 26.2336L45.3002 8.33355C45.3669 8.20022 45.4002 8.06688 45.4002 7.93355C45.4002 7.80022 45.4002 7.66689 45.3336 7.53355C45.3002 7.40022 45.2336 7.26688 45.1336 7.16688C45.0669 7.06688 44.9336 6.96688 44.8336 6.90022C44.7336 6.83355 44.6002 6.80021 44.4336 6.80021C44.3002 6.80021 44.1669 6.80022 44.0336 6.83355C43.9002 6.86688 43.7669 6.93355 43.6669 7.03355C43.5669 7.13355 43.4669 7.23355 43.4336 7.36689L35.1002 25.2669L22.9669 48.7002L2.50023 7.36689C2.43357 7.26689 2.33357 7.13355 2.2669 7.03355C2.1669 6.93355 2.03356 6.86688 1.90023 6.83355C1.7669 6.76688 1.63357 6.76688 1.50023 6.80021C1.3669 6.80021 1.23357 6.83355 1.10023 6.90022C1.00023 6.96688 0.866899 7.06688 0.800232 7.16688C0.733566 7.26688 0.666899 7.40022 0.633566 7.53355C0.600232 7.66689 0.5669 7.80022 0.600233 7.93355C0.633566 8.10022 0.666898 8.23355 0.733564 8.36689Z"
      fill="white" />
    <path fill-rule="evenodd" clip-rule="evenodd"
      d="M10.9667 27.5669H34.7667C34.9 27.5669 35.0334 27.5336 35.1667 27.5003C35.3 27.4669 35.4 27.3669 35.4667 27.2669C35.5667 27.1669 35.6334 27.0669 35.6667 26.9336C35.7667 26.6669 35.7667 26.4003 35.6667 26.1336C35.6334 26.0003 35.5334 25.9003 35.4667 25.8003C35.3667 25.7003 35.2667 25.6336 35.1667 25.5669C35.0334 25.5336 34.9 25.5003 34.7667 25.5003H10.9667C10.8334 25.5003 10.7 25.5336 10.5667 25.5669C10.4334 25.6003 10.3334 25.7003 10.2667 25.8003C10.1667 25.9003 10.1 26.0003 10.0667 26.1336C9.9667 26.4003 9.9667 26.6669 10.0667 26.9336C10.1 27.0669 10.1667 27.1669 10.2667 27.2669C10.3667 27.3669 10.4667 27.4336 10.5667 27.5003C10.7 27.5336 10.8334 27.5336 10.9667 27.5669ZM77.3 18.6003H61.8334C61.7 18.6003 61.5667 18.6336 61.4334 18.6669C61.3 18.7003 61.2 18.8003 61.1334 18.9003C61.0334 19.0003 60.9667 19.1003 60.9334 19.2336C60.9 19.3669 60.8667 19.5003 60.8667 19.6336V32.4669C60.8667 32.6003 60.9 32.7336 60.9334 32.8669C60.9667 33.0003 61.0334 33.1003 61.1334 33.2003C61.2334 33.3003 61.3334 33.3669 61.4334 33.4336C61.5667 33.4669 61.7 33.5003 61.8334 33.5003H77.3V35.6669H61.8334C61.6334 35.6669 61.4334 35.6336 61.2334 35.6003C61.0334 35.5669 60.8334 35.5003 60.6334 35.4336C60.4334 35.3669 60.2667 35.2669 60.1 35.1669C59.9334 35.0336 59.8 34.9003 59.6334 34.7669C59.3334 34.4669 59.1334 34.1336 58.9667 33.7669C58.9 33.5669 58.8334 33.3669 58.8 33.1669C58.7667 32.9669 58.7334 32.7669 58.7334 32.5669V19.6669C58.7334 19.4669 58.7667 19.2669 58.8 19.0669C58.8334 18.8669 58.9 18.6669 58.9667 18.4669C59.0334 18.2669 59.1334 18.0669 59.2334 17.9003C59.3334 17.7336 59.4667 17.5669 59.6334 17.4336C59.7667 17.3003 59.9334 17.1669 60.1 17.0336C60.2667 16.9336 60.4334 16.8336 60.6334 16.7669C60.8334 16.7003 61.0334 16.6336 61.2334 16.6003C61.4334 16.5669 61.6334 16.5336 61.8334 16.5336H77.3V18.6003ZM106.333 16.4336V18.6003H91.4334V24.9669H103.4V27.1669H91.4334V33.5336H106.333V35.7003H89.3667V16.4336H106.333V16.4336Z"
      fill="white" />
    <path
      d="M137.033 19.7001V25.3335C137.033 25.5335 137 25.7335 136.966 25.9335C136.933 26.1335 136.866 26.3335 136.8 26.5335C136.733 26.7335 136.633 26.9335 136.533 27.1001C136.4 27.2668 136.3 27.4335 136.133 27.5668C136 27.7001 135.833 27.8335 135.666 27.9668C135.5 28.0668 135.333 28.1668 135.133 28.2335C134.933 28.3001 134.733 28.3668 134.533 28.4335C134.333 28.4668 134.133 28.5001 133.933 28.5001H131.1L136.933 35.6668H134.133L128.333 28.5001H121.533C121.2 28.5001 120.866 28.4668 120.533 28.4001V35.6668H118.433V16.4668H133.966C134.166 16.4668 134.366 16.5001 134.566 16.5335C134.766 16.5668 134.966 16.6335 135.166 16.7001C135.366 16.7668 135.533 16.8668 135.7 17.0001C136.033 17.2335 136.3 17.5335 136.533 17.8668C136.633 18.0335 136.733 18.2335 136.8 18.4335C136.866 18.6335 136.933 18.8335 136.966 19.0335C137 19.2668 137.033 19.5001 137.033 19.7001ZM121.5 26.3668H133.933C134.066 26.3668 134.2 26.3335 134.333 26.3001C134.466 26.2668 134.566 26.2001 134.633 26.0668C134.733 25.9668 134.8 25.8668 134.833 25.7335C134.866 25.6001 134.9 25.4668 134.9 25.3335V19.7001C134.9 19.4335 134.8 19.1668 134.633 18.9668C134.466 18.7668 134.2 18.6335 133.933 18.6335H121.5C121.366 18.6335 121.233 18.6668 121.1 18.7001C120.966 18.7335 120.866 18.8335 120.8 18.9335C120.7 19.0335 120.633 19.1335 120.6 19.2668C120.566 19.4001 120.533 19.5335 120.533 19.6668V25.3001C120.533 25.5668 120.633 25.8335 120.866 26.0335C121 26.2335 121.266 26.3668 121.5 26.3668Z"
      fill="white" />
    <path fill-rule="evenodd" clip-rule="evenodd"
      d="M148.167 16.4336H166.766V18.6003H158.533V35.6669H156.433V18.6003H148.167V16.4336ZM178.1 35.7003V16.4669H180.2V35.7003H178.1ZM208.167 16.4336H210.866L203.1 26.0669L210.9 35.7003H208.167L201.233 27.1669H195.233V35.7003H193.133V16.4669H195.266V25.0003H201.266L208.167 16.4336Z"
      fill="white" />
  </g>
  <defs>
    <clipPath id="clip0_810_701">
      <rect width="211" height="52" fill="white" />
    </clipPath>
  </defs>
</svg>