<svg width="291" height="62" viewBox="0 0 291 62" fill="none" xmlns="http://www.w3.org/2000/svg">
  <g clip-path="url(#clip0_60_2)">
    <path fill-rule="evenodd" clip-rule="evenodd"
      d="M16.439 26.1152L36.542 46.5471L56.3633 26.3031L72.6617 42.8834L53.733 62.141L48.8481 57.3031L63.0329 42.8364L56.3633 36.1198L36.4951 56.3637L16.439 35.8849L9.81629 42.6016L24.236 57.2561L19.3511 62.094L0.1875 42.6016L16.439 26.1152Z"
      fill="white" />
    <path fill-rule="evenodd" clip-rule="evenodd"
      d="M56.4572 35.8851L36.3542 15.4533L16.486 35.6973L0.1875 19.117L19.1163 -0.140625L24.0011 4.69726L9.81629 19.1639L16.486 25.9745L36.3542 5.73059L56.4572 26.1624L63.0799 19.4457L48.6602 4.69726L53.5451 -0.140625L72.7087 19.3518L56.4572 35.8851Z"
      fill="white" />
    <path fill-rule="evenodd" clip-rule="evenodd" d="M33.3945 61.7174V48.8477H39.9703V61.7174H33.3945Z" fill="white" />
    <path fill-rule="evenodd" clip-rule="evenodd" d="M33.3945 13.1509V0.28125H39.9703V13.1509H33.3945Z" fill="white" />
    <path d="M94.7827 15.0312H88.2539V47.91H94.7827V15.0312Z" fill="white" />
    <path
      d="M127.946 23.7188C124.987 23.7188 122.122 24.9869 120.713 27.8051C119.257 25.0339 116.485 23.7188 113.291 23.7188C110.426 23.7188 108.219 24.7991 107.091 26.7718L106.387 24.1884H100.469V47.9081H106.857V34.6157C106.857 31.093 108.688 29.4021 111.366 29.4021C113.902 29.4021 115.64 30.999 115.64 34.8975V47.9081H121.793V34.7566C121.887 31.046 123.813 29.4021 126.302 29.4021C128.885 29.4021 130.576 30.9991 130.576 34.5688V47.9551H137.011V33.3006C137.105 26.7248 132.69 23.7188 127.946 23.7188Z"
      fill="white" />
    <path
      d="M169.653 23.7188C166.694 23.7188 163.829 24.9869 162.42 27.8051C160.964 25.0339 158.192 23.7188 154.999 23.7188C152.133 23.7188 149.926 24.7991 148.798 26.7718L148.094 24.1884H142.176V47.9081H148.564V34.6157C148.564 31.093 150.395 29.4021 153.073 29.4021C155.609 29.4021 157.347 30.999 157.347 34.8975V47.9081H163.5V34.7566C163.594 31.046 165.52 29.4021 168.009 29.4021C170.592 29.4021 172.283 30.9991 172.283 34.5688V47.9551H178.718V33.3006C178.859 26.7248 174.397 23.7188 169.653 23.7188Z"
      fill="white" />
    <path
      d="M199.528 24.1426V37.1532C199.528 40.6759 197.884 42.7896 194.737 42.8365C191.731 42.9305 189.805 41.1456 189.805 37.435V24.1426H183.746V38.2805C183.746 44.3396 187.269 48.3789 193.328 48.3789C196.146 48.3789 198.213 47.1108 199.434 45.3259L199.763 47.9092H205.634V24.1426H199.528Z"
      fill="white" />
    <path
      d="M224.375 23.7188C220.805 23.7188 218.41 25.0339 217.188 27.0066L216.813 24.1884H210.895V47.9081H217.282V35.3203C217.282 31.4688 219.114 29.1672 222.496 29.1672C225.596 29.1672 227.475 31.1869 227.475 35.0854V47.9081H233.91V33.8172C233.91 27.7112 230.434 23.7188 224.375 23.7188Z"
      fill="white" />
    <path
      d="M261.903 35.696C261.903 28.4157 257.206 23.7188 250.114 23.7188C243.021 23.7188 238.277 28.6506 238.277 36.0718C238.277 43.54 243.021 48.4718 250.161 48.4718C256.126 48.4718 260.682 45.1369 261.715 40.2051H255.28C254.529 42.2718 252.697 43.3051 250.349 43.3051C247.296 43.3051 244.806 41.3324 244.712 37.8097H261.903V35.696V35.696ZM250.114 28.6975C252.885 28.6975 255.233 30.2945 255.515 33.5824H244.759C245.041 30.2945 247.343 28.6975 250.114 28.6975Z"
      fill="white" />
    <path
      d="M264.391 24.1425V29.7319H268.054V47.9092H274.489V29.7319H279.938V24.1425H274.489V21.7001C274.489 20.0092 274.959 18.741 277.542 18.741H279.938V13.5273H276.133C270.121 13.5273 268.054 16.4395 268.054 21.0895V24.1425H264.391V24.1425Z"
      fill="white" />
    <path
      d="M284.168 20.5257H290.65L290.744 13.5742H284.262L284.168 20.5257ZM284.262 47.9091H290.65V24.1424H284.262V47.9091Z"
      fill="white" />
  </g>
  <defs>
    <clipPath id="clip0_60_2">
      <rect width="290.742" height="62" fill="white" />
    </clipPath>
  </defs>
</svg>