<svg width="63" height="70" viewBox="0 0 63 70" fill="none" xmlns="http://www.w3.org/2000/svg">
  <path fill-rule="evenodd" clip-rule="evenodd"
    d="M32.8063 1.65005C32.2936 1.41819 31.7422 1.22852 31.7422 1.22852L31.776 4.32755C32.121 4.67945 32.592 4.89166 32.9543 5.23546C33.2263 5.49385 33.6887 5.83231 33.9816 5.98772C34.2739 6.14313 34.5133 6.20275 34.5133 6.12029C34.5133 6.0377 34.9413 5.99975 35.4651 6.0361C36.3339 6.09634 36.4248 6.06245 36.5034 5.64908C36.5894 5.19868 36.59 5.19868 36.6158 5.63146C36.6391 6.01467 36.7472 6.06693 37.5135 6.06693C38.3369 6.06693 38.3842 6.0377 38.3842 5.52811C38.3842 5.13851 38.2282 4.89719 37.8224 4.65717C37.5129 4.47449 37.1211 4.32509 36.951 4.32509C36.7816 4.32509 36.641 4.43402 36.6397 4.56702C36.6373 4.74485 36.5986 4.74952 36.4936 4.5844C36.415 4.46092 36.0896 4.32159 35.7709 4.27474L35.1906 4.18958L35.82 4.16059C36.1657 4.14451 36.4488 4.06591 36.4488 3.98584C36.4488 3.90571 35.9268 3.51377 35.2889 3.11489C34.5317 2.64196 33.6076 2.0119 32.8063 1.65005ZM33.4934 4.24846C33.4289 4.31269 33.2619 4.31969 33.1225 4.26375C32.9684 4.20198 33.0139 4.15611 33.2392 4.14684C33.4437 4.13849 33.5579 4.18417 33.4934 4.24846ZM34.5133 4.17644C34.886 4.17644 35.0383 4.21629 34.8523 4.26492C34.6656 4.31367 34.3611 4.31367 34.175 4.26492C33.9883 4.21629 34.1412 4.17644 34.5133 4.17644Z"
    fill="white" />
  <path
    d="M30.4501 5.25836V3.43627C30.4501 2.4341 30.4286 1.61547 30.4022 1.61719C30.3752 1.61897 29.8956 1.97198 29.3356 2.40162C28.6504 2.92748 27.9835 3.39353 27.2995 3.88255C26.85 4.20338 25.5544 4.99187 24.4197 5.63464C23.2849 6.27735 21.5798 7.15309 20.6305 7.58058C19.6812 8.00795 17.844 8.71494 16.5471 9.15134C15.2509 9.58773 13.2983 10.155 12.2084 10.4116C11.1178 10.6683 9.44213 11.0116 8.48423 11.1743C7.52634 11.3371 5.61239 11.5655 4.2313 11.682C2.85028 11.7985 1.69061 11.9233 1.65438 11.9598C1.61803 11.9961 1.53845 13.9288 1.4773 16.2549C1.40748 18.9175 1.45334 21.4873 1.60139 23.1933C1.73064 24.6835 2.05307 27.1946 2.31785 28.7739C2.58262 30.3532 3.14734 32.8769 3.57293 34.3825C3.99852 35.8887 4.69889 38.0366 5.12914 39.1566C5.5602 40.276 6.59178 42.5854 7.42256 44.2887C8.27976 46.0461 9.76695 48.641 10.8618 50.2884C11.9234 51.8849 13.2448 53.7571 13.7987 54.4491C14.3526 55.1412 15.677 56.6799 16.7412 57.8687C17.8059 59.0569 19.6492 60.9008 20.838 61.9656C22.0268 63.0309 23.6521 64.4155 24.451 65.0437C25.2492 65.6719 26.7726 66.7673 27.8362 67.4784C28.8997 68.1894 29.8735 68.7709 30.0006 68.7709C30.1621 68.7709 30.2284 68.2576 30.2235 67.0541L30.2155 65.3372L28.5085 64.2399C27.5697 63.6363 25.9996 62.5219 25.0196 61.7635C24.0396 61.0046 22.1471 59.332 20.8141 58.0456C19.481 56.7598 17.6585 54.8366 16.7639 53.7719C15.8692 52.7077 14.3747 50.7041 13.4432 49.3207C12.5111 47.9367 11.2517 45.8772 10.6444 44.7431C10.0365 43.6096 9.18055 41.8246 8.74274 40.7758C8.30493 39.7276 7.65774 38.0323 7.3059 37.0081C6.95344 35.9839 6.44932 34.2855 6.18651 33.2336C5.92309 32.1824 5.57432 30.5816 5.4116 29.6765C5.24827 28.772 5.01063 27.1172 4.88353 25.9997C4.75599 24.8819 4.6548 22.0878 4.65848 19.7904C4.66217 17.4929 4.72578 15.3375 4.79978 15.0004C4.93327 14.3931 4.94555 14.3875 6.12879 14.3865C6.7852 14.3861 8.45476 14.2191 9.83879 14.0153C11.2228 13.8117 13.2694 13.4153 14.387 13.1349C15.5045 12.8543 17.0721 12.402 17.8704 12.1297C18.6686 11.8573 19.9753 11.3762 20.7735 11.0604C21.5718 10.7447 23.0522 10.043 24.0635 9.50085C25.0748 8.95878 26.4104 8.18117 27.0312 7.77277C27.9565 7.16377 28.5693 6.76379 29.4345 6.07159L30.4501 5.25836Z"
    fill="white" />
  <path
    d="M39.3524 6.06744C39.778 6.06744 40.1267 6.02562 40.1267 5.97453C40.1267 5.92363 39.778 5.70393 39.3524 5.4868L38.5781 5.0918V5.57971C38.5781 6.0196 38.6537 6.06744 39.3524 6.06744Z"
    fill="white" />
  <path
    d="M36.5735 6.50169C36.4955 6.69524 36.4728 6.69524 36.4605 6.50169C36.4507 6.34628 36.1338 6.25977 35.5744 6.25977C35.0955 6.25977 34.7031 6.33081 34.7031 6.4177C34.7031 6.50464 35.0421 6.76591 35.4553 6.99833C35.8692 7.23074 36.2548 7.42103 36.3125 7.42103C36.3696 7.42103 36.4568 7.2685 36.5053 7.08233C36.5624 6.86514 36.6017 6.92728 36.6165 7.25512C36.6287 7.53653 36.7767 7.81948 36.945 7.88413C37.1132 7.94879 37.505 8.0016 37.8157 8.0016C38.356 8.0016 38.3806 7.96389 38.3806 7.13071V6.25977H37.5258C37.0229 6.25977 36.6306 6.35948 36.5735 6.50169Z"
    fill="white" />
  <path d="M40.3201 8.0016V6.25977H38.5781V8.0016H40.3201Z" fill="white" />
  <path
    d="M42.2537 7.42355C42.2537 6.94221 42.1365 6.79668 41.5525 6.5526C41.1669 6.3916 40.7751 6.25977 40.6818 6.25977C40.5885 6.25977 40.5117 6.6517 40.5117 7.13071V8.0016H41.3824C42.2206 8.0016 42.2537 7.97956 42.2537 7.42355Z"
    fill="white" />
  <path
    d="M44.1897 7.82107C44.1897 7.71 43.8741 7.48722 43.4885 7.32604C43.1029 7.16498 42.705 7.0332 42.6043 7.0332C42.503 7.0332 42.4489 7.22927 42.4827 7.46868C42.5337 7.83059 42.6835 7.91416 43.3669 7.96353C43.8477 7.99835 44.1897 7.93915 44.1897 7.82107Z"
    fill="white" />
  <path
    d="M32.8233 8.93713C32.741 8.92632 32.5599 8.755 32.4205 8.55642C32.2817 8.35791 32.0828 8.19531 31.979 8.19531C31.8753 8.19531 31.7438 8.31763 31.6861 8.4672C31.629 8.61666 31.6094 9.0304 31.6438 9.38654C31.691 9.87869 31.7967 10.0339 32.084 10.0339C32.3229 10.0339 32.512 9.85529 32.5974 9.55006L32.7318 9.0662L32.7509 9.59844C32.7668 10.0413 32.8571 10.1307 33.2863 10.1307C33.57 10.1307 33.7505 10.1825 33.6873 10.2462C33.6234 10.3097 33.1303 10.3581 32.59 10.354L31.6094 10.3465V11.2062C31.6094 11.9886 31.6517 12.066 32.0816 12.066C32.4844 12.066 32.5648 11.9598 32.6293 11.3403L32.7054 10.6145L32.7705 12.066H34.5119V11.1951C34.5119 10.4959 34.4456 10.3236 34.1736 10.3213C33.9206 10.319 33.8985 10.2778 34.087 10.1583C34.2724 10.0407 34.1595 9.86143 33.656 9.47766C33.2808 9.19146 32.9062 8.94818 32.8233 8.93713Z"
    fill="white" />
  <path
    d="M38.1991 8.5824C38.2998 8.5824 38.3815 8.49527 38.3815 8.38886C38.3815 8.28238 38.2458 8.19531 38.08 8.19531C37.9142 8.19531 37.8319 8.28238 37.8976 8.38886C37.9633 8.49527 38.0991 8.5824 38.1991 8.5824Z"
    fill="white" />
  <path
    d="M40.2158 9.55006C40.2729 9.55006 40.3201 9.24525 40.3201 8.87271C40.3201 8.19899 40.3152 8.19531 39.4494 8.19531C38.8096 8.19531 38.5781 8.27139 38.5781 8.48176C38.5781 8.63908 38.9232 8.94388 39.3444 9.1591C39.7663 9.37413 40.158 9.55006 40.2158 9.55006Z"
    fill="white" />
  <path
    d="M41.6888 9.93715C42.2292 9.93715 42.2537 9.89938 42.2537 9.0662V8.19531H40.5117V8.94873C40.5117 9.45715 40.6112 9.74029 40.8181 9.81968C40.9864 9.88428 41.3781 9.93715 41.6888 9.93715Z"
    fill="white" />
  <path
    d="M44.1804 9.75969C44.2498 9.6472 44.2707 9.2493 44.2271 8.87523C44.1515 8.22669 44.1128 8.19531 43.3883 8.19531C42.9124 8.19531 42.5907 8.29749 42.5243 8.46935C42.4666 8.61992 42.4476 8.99018 42.482 9.29185C42.5378 9.7767 42.6324 9.84749 43.2993 9.90208C43.7143 9.93616 44.1104 9.87193 44.1804 9.75969Z"
    fill="white" />
  <path
    d="M46.2065 8.92215C46.2213 8.68274 46.1439 8.42263 46.0346 8.3444C45.9253 8.26624 45.5526 8.20103 45.2063 8.19925C44.8606 8.19771 44.5658 8.26157 44.5517 8.34152C44.537 8.42146 44.5155 8.81316 44.5032 9.2124L44.4805 9.93801L45.4113 9.93819C45.9824 9.93819 46.2962 9.86347 46.2225 9.74465C46.1568 9.63818 46.1955 9.5511 46.3078 9.5511C46.4202 9.5511 46.5129 9.64321 46.5129 9.7557C46.5129 9.87642 46.8439 9.93604 47.3204 9.9008C47.7643 9.86813 48.1573 9.75085 48.1942 9.64014C48.2298 9.52924 48.1499 9.29794 48.0155 9.12588C47.881 8.95383 47.488 8.75452 47.1417 8.68292C46.5921 8.56914 46.5129 8.60334 46.5129 8.95518C46.5129 9.17642 46.4374 9.35756 46.3459 9.35756C46.2538 9.35756 46.1912 9.1615 46.2065 8.92215Z"
    fill="white" />
  <path
    d="M30.2817 36.2088C30.2976 22.3442 30.3296 10.5869 30.3529 10.0814C30.3762 9.57591 30.34 9.16211 30.2718 9.16211C30.2043 9.16211 29.6277 9.55368 28.991 10.0321C28.1602 10.6568 27.3097 11.2103 26.4323 11.7383C25.8195 12.1076 24.7081 12.7131 23.9632 13.0841C23.2178 13.4551 21.7423 14.0822 20.6837 14.4776C19.6251 14.8728 17.7959 15.4455 16.6194 15.7501C15.4429 16.0545 13.5541 16.4387 12.4231 16.6035C11.2914 16.7687 9.84413 16.9036 9.20676 16.9036H8.04684L7.92711 17.6293C7.86079 18.0286 7.80799 20.0533 7.8086 22.129C7.80983 24.3293 7.92833 26.7888 8.0929 28.0267C8.24825 29.1946 8.51719 30.8495 8.69035 31.7042C8.86351 32.5583 9.30623 34.2586 9.67527 35.483C10.0437 36.7074 10.7308 38.6231 11.2018 39.7407L12.0583 41.7731L13.6561 42.6807C14.5347 43.1805 15.6461 43.7301 16.1251 43.902C16.604 44.0739 17.7572 44.2655 18.6881 44.3269C20.0218 44.4153 20.5639 44.3687 21.2468 44.1083C21.7232 43.926 22.3299 43.5195 22.5952 43.2051C22.8598 42.8901 23.1288 42.3522 23.1932 42.0089C23.2571 41.6663 23.1951 41.0461 23.0551 40.6304C22.9114 40.2018 22.5037 39.6351 22.1138 39.3207C21.7349 39.0155 20.3963 38.3364 19.1382 37.8114C17.8806 37.2858 16.375 36.5686 15.7929 36.218C15.2108 35.8667 14.2983 35.1446 13.7654 34.6135C13.2324 34.0817 12.5839 33.2859 12.3254 32.8445C12.0669 32.403 11.72 31.4009 11.5548 30.6174C11.3712 29.7448 11.3018 28.8182 11.3749 28.2251C11.4406 27.6933 11.634 26.822 11.8047 26.2903C11.9754 25.7579 12.4225 24.8553 12.7989 24.2844C13.1747 23.7137 13.9244 22.895 14.4647 22.4654C15.0051 22.0357 15.9261 21.4712 16.5101 21.2109C17.0953 20.9505 18.2128 20.6152 18.9951 20.4656C19.953 20.2823 21.8313 20.1937 24.7541 20.1937H29.0917V25.9538L24.7854 26.0422C21.24 26.1153 20.3337 26.192 19.6533 26.4751C19.199 26.6642 18.6543 27.0381 18.4437 27.3065C18.1987 27.6178 18.0599 28.0894 18.0599 28.6125C18.0599 29.148 18.1993 29.6079 18.4615 29.9413C18.6819 30.2219 19.2401 30.6726 19.7018 30.9428C20.1636 31.2136 21.2879 31.7361 22.2016 32.1045C23.1146 32.473 24.4821 33.1441 25.2398 33.5967C25.9975 34.0486 27.112 34.9463 27.7168 35.5917C28.4396 36.3623 28.9701 37.1587 29.2642 37.9139C29.5528 38.6545 29.7487 39.6584 29.8144 40.7348C29.8991 42.1121 29.8408 42.6561 29.4853 43.8271C29.2476 44.6088 28.7484 45.7085 28.3751 46.2709C28.0018 46.8334 27.3349 47.6028 26.894 47.981C26.4532 48.3593 25.5616 48.9217 24.9138 49.2312C24.2654 49.5413 23.1767 49.9263 22.4945 50.0872C21.8117 50.2481 20.4479 50.3807 19.4636 50.3825C18.4787 50.3838 17.6731 50.4562 17.6731 50.5428C17.6731 50.6288 18.2975 51.3908 19.0602 52.2357C19.8228 53.0806 21.0202 54.3271 21.7214 55.0056C22.422 55.6847 23.6918 56.8281 24.5435 57.5477C25.3952 58.2674 26.9432 59.4322 27.984 60.1365C29.0241 60.8408 29.9605 61.4167 30.0643 61.4167C30.1859 61.4167 30.2632 52.4389 30.2817 36.2088Z"
    fill="white" />
  <path
    d="M49.9476 9.84956C50.1312 9.77913 50.1827 9.66301 50.0765 9.55985C49.9789 9.46523 49.5638 9.32603 49.1542 9.25075C48.4923 9.12923 48.4168 9.15459 48.4782 9.47757C48.5224 9.71121 48.7428 9.86386 49.0941 9.90433C49.3949 9.93877 49.7787 9.91421 49.9476 9.84956Z"
    fill="white" />
  <path
    d="M50.7823 9.83274C50.8812 9.77159 50.9622 9.68317 50.9622 9.63613C50.9622 9.5891 50.8265 9.55078 50.6607 9.55078C50.4949 9.55078 50.4139 9.6392 50.4802 9.74739C50.5471 9.85559 50.6828 9.89409 50.7823 9.83274Z"
    fill="white" />
  <path
    d="M43.7556 10.989C44.1295 11.1053 44.1915 11.0542 44.1915 10.6277C44.1915 10.1783 44.1185 10.1309 43.4283 10.1309C43.0089 10.1309 42.6116 10.2181 42.5459 10.3248C42.4336 10.5071 42.7277 10.6687 43.7556 10.989Z"
    fill="white" />
  <path
    d="M46.1222 11.6787C46.1756 11.6792 46.2106 11.3531 46.2002 10.9541C46.1811 10.245 46.1615 10.2268 45.3774 10.1687C44.6 10.1111 44.5742 10.1279 44.5742 10.6916C44.5742 11.2 44.6669 11.3001 45.3 11.4759C45.6991 11.5868 46.0694 11.6781 46.1222 11.6787Z"
    fill="white" />
  <path
    d="M47.3339 11.8361C48.1549 11.7769 48.1567 11.7749 48.1567 11.0025C48.1567 10.2302 48.1549 10.2282 47.3339 10.169L46.5117 10.1094V11.8957L47.3339 11.8361Z"
    fill="white" />
  <path
    d="M49.2675 11.8361C50.0885 11.7769 50.0903 11.7749 50.0903 11.0025C50.0903 10.2302 50.0885 10.2282 49.2675 10.169L48.4453 10.1094V11.8957L49.2675 11.8361Z"
    fill="white" />
  <path
    d="M51.2528 11.7759C52.0252 11.7759 52.0271 11.774 52.086 10.9534L52.1456 10.1309H50.3594L50.4189 10.9534C50.4785 11.774 50.4803 11.7759 51.2528 11.7759Z"
    fill="white" />
  <path
    d="M53.2847 11.713C54.0689 11.6383 54.0787 11.6279 54.0204 10.9329C53.9639 10.2532 53.9326 10.2263 53.1392 10.169L52.3164 10.1094V10.8624C52.3164 11.2766 52.3557 11.6544 52.4036 11.7022C52.4509 11.7498 52.8476 11.7548 53.2847 11.713Z"
    fill="white" />
  <path
    d="M36.4451 11.6859C36.4451 11.4637 36.1455 11.102 35.723 10.815C35.3258 10.545 34.934 10.3242 34.8523 10.3242C34.7707 10.3242 34.7031 10.7161 34.7031 11.1951V12.066H35.5744C36.3107 12.066 36.4451 12.0074 36.4451 11.6859Z"
    fill="white" />
  <path
    d="M55.9954 11.109C55.9954 10.6122 55.9204 10.5173 55.5275 10.5173C55.2702 10.5173 54.9226 10.4647 54.755 10.4004C54.5751 10.3315 54.4032 10.406 54.3356 10.5827C54.2724 10.7472 54.2509 11.0393 54.2871 11.2318C54.3368 11.4918 54.5647 11.5971 55.1744 11.6411C55.9739 11.6992 55.9954 11.6853 55.9954 11.109Z"
    fill="white" />
  <path
    d="M57.1563 11.6787C57.8532 11.6787 57.9306 11.6303 57.9306 11.1948C57.9306 10.7518 57.8581 10.7109 57.0765 10.7109C56.3679 10.7109 56.234 10.7684 56.288 11.0496C56.3237 11.236 56.3593 11.4537 56.3673 11.5335C56.3759 11.6132 56.7308 11.6787 57.1563 11.6787Z"
    fill="white" />
  <path
    d="M59.0907 11.6785C59.7354 11.6785 59.865 11.614 59.865 11.2914C59.865 10.9688 59.7354 10.9043 59.0907 10.9043C58.4453 10.9043 58.3164 10.9688 58.3164 11.2914C58.3164 11.614 58.4453 11.6785 59.0907 11.6785Z"
    fill="white" />
  <path
    d="M37.4149 11.9885C37.4149 11.8417 37.2774 11.6685 37.1085 11.6038C36.9403 11.5391 36.7665 11.4863 36.7217 11.4863C36.6775 11.4863 36.6406 11.5692 36.6406 11.6702C36.6406 11.7714 36.7929 11.9429 36.9796 12.0514C37.2995 12.2376 37.2989 12.249 36.9685 12.2547C36.6775 12.2595 36.6283 12.3984 36.6781 13.083C36.7376 13.9035 36.7395 13.9055 37.5119 13.9055H38.2856V13.0346C38.2856 12.2467 38.2445 12.1682 37.8503 12.2097C37.5869 12.2376 37.4149 12.1503 37.4149 11.9885Z"
    fill="white" />
  <path
    d="M36.4464 14.0249V12.2982L35.5272 12.2312C35.2656 12.2121 34.9187 12.2019 34.5742 12.201L34.5693 12.1641L34.568 12.201C34.2481 12.2002 33.9313 12.2075 33.6887 12.2231L32.7695 12.2821V14.0027H34.5109L34.568 12.201C34.5699 12.201 34.5723 12.201 34.5742 12.201L34.6853 13.035C34.8008 13.9001 34.8069 13.9063 35.6242 13.9653L36.4464 14.0249Z"
    fill="white" />
  <path
    d="M49.9208 12.647C50.067 12.647 50.1867 12.5164 50.1867 12.3567C50.1867 12.1417 49.9614 12.0664 49.316 12.0664C48.8371 12.0664 48.4453 12.1427 48.4453 12.2358C48.4453 12.3288 48.7173 12.4595 49.0501 12.5261C49.3823 12.5926 49.7747 12.647 49.9208 12.647Z"
    fill="white" />
  <path
    d="M51.5194 12.9615C52.0739 13.0724 52.1242 13.0403 52.1242 12.5745C52.1242 12.1015 52.0647 12.0664 51.2535 12.0664C50.5118 12.0664 50.3828 12.1237 50.3828 12.4535C50.3828 12.6664 50.5025 12.8406 50.6487 12.8406C50.7948 12.8406 51.1866 12.8949 51.5194 12.9615Z"
    fill="white" />
  <path
    d="M53.2389 13.1903C54.0396 13.2484 54.0611 13.2346 54.0611 12.6581C54.0611 12.0846 54.0341 12.0664 53.1775 12.0664C52.3277 12.0664 52.2958 12.0867 52.3547 12.5987C52.41 13.075 52.5027 13.137 53.2389 13.1903Z"
    fill="white" />
  <path
    d="M55.235 13.4212C55.9749 13.4212 55.9951 13.403 55.9951 12.7438C55.9951 12.086 55.9737 12.0664 55.2436 12.0664C54.6879 12.0664 54.4711 12.1547 54.4109 12.4051C54.3667 12.5915 54.3624 12.8961 54.403 13.0825C54.457 13.3352 54.6682 13.4212 55.235 13.4212Z"
    fill="white" />
  <path d="M57.9314 13.6147V12.0664H56.3828V13.6147H57.9314Z" fill="white" />
  <path d="M59.865 13.6147V12.0664H58.3164V13.6147H59.865Z" fill="white" />
  <path
    d="M60.8446 13.3728C60.8391 13.2931 60.8348 12.9663 60.8348 12.647C60.8348 12.26 60.7378 12.0664 60.5443 12.0664C60.3337 12.0664 60.2539 12.283 60.2539 12.8547C60.2539 13.4653 60.3215 13.629 60.5548 13.5804C60.72 13.546 60.8501 13.4525 60.8446 13.3728Z"
    fill="white" />
  <path
    d="M32.1402 13.9668C32.5375 14.0231 32.5756 13.9505 32.5756 13.1442C32.5756 12.3842 32.5203 12.2598 32.1826 12.2598C31.9665 12.2598 31.7424 12.3831 31.6846 12.5338C31.6263 12.6844 31.6079 13.0546 31.6423 13.3564C31.6877 13.7537 31.8252 13.9218 32.1402 13.9668Z"
    fill="white" />
  <path
    d="M40.3201 13.4194C40.3201 13.2168 40.0991 12.9925 39.7878 12.8799C39.4955 12.774 39.1031 12.6254 38.9171 12.5499C38.6322 12.4348 38.5781 12.5218 38.5781 13.0947C38.5781 13.4698 38.6745 13.8089 38.793 13.8482C38.9109 13.8875 39.3027 13.8853 39.6637 13.8431C40.1372 13.7878 40.3201 13.6699 40.3201 13.4194Z"
    fill="white" />
  <path
    d="M41.6717 13.8028C41.6717 13.7224 41.5341 13.604 41.3659 13.5394C41.197 13.4747 40.9312 13.4219 40.7734 13.4219C40.6162 13.4219 40.5351 13.4985 40.5928 13.5924C40.6512 13.6861 40.9177 13.8047 41.1848 13.8558C41.4525 13.9069 41.6717 13.8831 41.6717 13.8028Z"
    fill="white" />
  <path
    d="M57.8621 15.5342C57.9001 15.5785 57.9314 15.2518 57.9314 14.8084C57.9314 14.3648 57.8498 14.002 57.7497 14.002C57.6496 14.002 57.6183 14.3257 57.6803 14.7277C57.7423 15.127 57.824 15.4898 57.8621 15.5342Z"
    fill="white" />
  <path
    d="M59.9718 15.5502L59.8982 14.7761C59.8257 14.018 59.8085 14.002 59.0704 14.002C58.3201 14.002 58.3164 14.0055 58.3164 14.7761V15.5502H59.9718Z"
    fill="white" />
  <path
    d="M60.6408 15.5502C60.9637 15.5502 61.0282 15.4212 61.0282 14.7761C61.0282 14.131 60.9637 14.002 60.6408 14.002C60.3184 14.002 60.2539 14.131 60.2539 14.7761C60.2539 15.4212 60.3184 15.5502 60.6408 15.5502Z"
    fill="white" />
  <path
    d="M32.1402 15.9023C32.5375 15.9586 32.5756 15.886 32.5756 15.0798C32.5756 14.3197 32.5203 14.1953 32.1826 14.1953C31.9665 14.1953 31.7424 14.3186 31.6846 14.4694C31.6263 14.6199 31.6079 14.9901 31.6423 15.2919C31.6877 15.6892 31.8252 15.8574 32.1402 15.9023Z"
    fill="white" />
  <path d="M34.5109 15.9371V14.1953H32.7695V15.9371H34.5109Z" fill="white" />
  <path d="M36.4451 15.9371V14.1953H34.7031V15.9371H36.4451Z" fill="white" />
  <path
    d="M38.3813 15.9594V14.1953H36.6172L36.6767 15.0178C36.7363 15.8363 36.7406 15.8406 37.5585 15.8998L38.3813 15.9594Z"
    fill="white" />
  <path
    d="M39.5633 15.9031C40.1865 15.8436 40.2234 15.7978 40.2799 15.0178L40.3394 14.1953H39.4577C38.5906 14.1953 38.5753 14.2063 38.5784 14.8243C38.5802 15.1702 38.6545 15.5686 38.7435 15.7095C38.8418 15.8638 39.1684 15.9408 39.5633 15.9031Z"
    fill="white" />
  <path
    d="M41.6748 15.7436C42.2231 15.7436 42.2557 15.7006 42.2557 14.9694C42.2557 14.1988 42.252 14.1953 41.5022 14.1953C41.0718 14.1953 40.7138 14.299 40.6672 14.4372C40.6229 14.5704 40.6352 14.9354 40.6948 15.2487C40.755 15.562 40.8692 15.8016 40.949 15.7809C41.0288 15.7604 41.3555 15.7436 41.6748 15.7436Z"
    fill="white" />
  <path
    d="M44.3826 15.1819C44.3826 14.726 44.2678 14.5803 43.7729 14.4078C43.4376 14.2909 43.0459 14.1953 42.9022 14.1953C42.726 14.1953 42.6406 14.4484 42.6406 14.9694V15.7436H43.5113C44.344 15.7436 44.3826 15.7186 44.3826 15.1819Z"
    fill="white" />
  <path
    d="M46.2297 15.5329C46.3009 15.4171 46.2769 15.2398 46.1762 15.1388C46.0749 15.0378 45.6733 14.9033 45.2834 14.84C44.6172 14.732 44.5742 14.756 44.5742 15.234C44.5742 15.6977 44.6424 15.7432 45.3369 15.7432C45.7562 15.7432 46.1578 15.6485 46.2297 15.5329Z"
    fill="white" />
  <path
    d="M47.4211 15.7431C47.9547 15.7431 48.255 15.6726 48.1469 15.5729C48.0462 15.4795 47.6366 15.3449 47.2375 15.2739C46.656 15.1705 46.5117 15.2044 46.5117 15.444C46.5117 15.6712 46.7297 15.7431 47.4211 15.7431Z"
    fill="white" />
  <path
    d="M48.2758 17.6801L48.2163 16.8576C48.1635 16.1286 48.1015 16.034 47.6729 16.0243C47.407 16.0182 47.0367 16.0463 46.8501 16.0868C46.5977 16.1415 46.5117 16.3534 46.5117 16.9201V17.6801H48.2758Z"
    fill="white" />
  <path
    d="M50.2102 17.7011L50.1494 16.8668C50.0966 16.1317 50.0321 16.0292 49.606 16.0027C49.3395 15.9862 48.9649 16.0152 48.7727 16.0673C48.5013 16.1408 48.4363 16.3206 48.4823 16.8715C48.5394 17.5587 48.5677 17.5829 49.3757 17.6409L50.2102 17.7011Z"
    fill="white" />
  <path
    d="M51.3728 17.6793H52.1256V15.9375H51.3513C50.9258 15.9375 50.5709 15.9592 50.5623 15.9858C50.5543 16.0125 50.515 16.2084 50.4751 16.4213C50.4352 16.6342 50.4512 17.0044 50.5107 17.2439C50.6004 17.6023 50.7526 17.6793 51.3728 17.6793Z"
    fill="white" />
  <path
    d="M57.7891 16.7115C57.7891 17.1905 57.8271 17.3864 57.8732 17.147C57.9192 16.9075 57.9192 16.5154 57.8732 16.276C57.8271 16.0366 57.7891 16.2325 57.7891 16.7115Z"
    fill="white" />
  <path d="M59.865 17.4857V15.9375H58.3164V17.4857H59.865Z" fill="white" />
  <path
    d="M60.6408 17.4857C60.9637 17.4857 61.0282 17.3567 61.0282 16.7116C61.0282 16.1955 60.9422 15.9375 60.7703 15.9375C60.6279 15.9375 60.4541 15.9955 60.3829 16.0666C60.3122 16.1374 60.2539 16.4858 60.2539 16.8407C60.2539 17.3567 60.3313 17.4857 60.6408 17.4857Z"
    fill="white" />
  <path
    d="M32.0926 17.8727C32.5372 17.8727 32.5765 17.8016 32.5765 17.0018C32.5765 16.2863 32.5132 16.1309 32.2222 16.1309C32.0269 16.1309 31.8089 16.1889 31.7383 16.26C31.6671 16.3308 31.6094 16.7227 31.6094 17.1309C31.6094 17.7932 31.661 17.8727 32.0926 17.8727Z"
    fill="white" />
  <path d="M34.5109 17.8727V16.1309H32.7695V17.8727H34.5109Z" fill="white" />
  <path
    d="M36.4477 17.895V16.1309H34.6836L34.7432 16.9534C34.8027 17.7719 34.807 17.7761 35.6255 17.8354L36.4477 17.895Z"
    fill="white" />
  <path
    d="M38.421 17.4477C38.4573 17.2025 38.4542 16.8057 38.4131 16.5663C38.3492 16.1936 38.2184 16.1309 37.5031 16.1309H36.668L36.7079 16.9534C36.7484 17.7719 36.7527 17.7761 37.5516 17.8347C38.262 17.8868 38.3615 17.8423 38.421 17.4477Z"
    fill="white" />
  <path
    d="M40.3166 17.8727V16.1309H39.554C39.134 16.1309 38.7459 16.2044 38.69 16.2943C38.6348 16.384 38.6409 16.776 38.7042 17.1651C38.8135 17.8379 38.8558 17.8727 39.5675 17.8727H40.3166Z"
    fill="white" />
  <path
    d="M42.3507 17.7576L42.3924 16.1309H40.6836L40.7432 16.9534C40.7732 17.3735 40.7886 17.5791 40.8985 17.6784C41.0047 17.7736 41.1982 17.7713 41.577 17.7668L42.3507 17.7576Z"
    fill="white" />
  <path d="M44.3796 17.6791L44.3188 16.1309H42.6406V17.6791H44.3796Z" fill="white" />
  <path d="M46.3162 17.6791V16.1309H44.5742V17.6791H46.3162Z" fill="white" />
  <path d="M54.0597 17.6791V16.1309H52.5117V17.6791H54.0597Z" fill="white" />
  <path
    d="M52.1482 19.6148L52.0887 18.8011C52.0365 18.086 51.9708 17.9846 51.5452 17.9628C51.2787 17.949 50.9521 17.9739 50.8194 18.0183C50.6813 18.0643 50.5781 18.4234 50.5781 18.8567C50.5781 19.6138 50.5787 19.6148 51.3629 19.6148H52.1482Z"
    fill="white" />
  <path
    d="M54.0818 19.6138L54.0222 18.7913C53.9664 18.0166 53.9271 17.967 53.3486 17.9378C53.0109 17.9207 52.6843 17.9571 52.6229 18.0185C52.5615 18.0798 52.5117 18.4638 52.5117 18.872C52.5117 19.6101 52.5154 19.6138 53.2965 19.6138H54.0818Z"
    fill="white" />
  <path
    d="M59.9344 18.8709C59.9135 18.5872 59.8889 18.2461 59.8804 18.113C59.8711 17.971 59.5985 17.8711 59.2196 17.8711C58.8647 17.8711 58.5166 17.9292 58.4453 18.0002C58.3747 18.071 58.3164 18.3254 58.3164 18.565C58.3164 18.8045 58.3618 19.1188 58.4171 19.2632C58.4846 19.4384 58.7597 19.5026 59.2454 19.4562C59.8988 19.3938 59.9694 19.3344 59.9344 18.8709Z"
    fill="white" />
  <path
    d="M60.7382 19.4194C60.9433 19.4194 61.025 19.1999 61.025 18.6453C61.025 18.0791 60.9452 17.8711 60.7284 17.8711C60.5657 17.8711 60.3821 18.0019 60.3207 18.1618C60.2593 18.3217 60.2636 18.67 60.3305 18.936C60.3968 19.2018 60.5804 19.4194 60.7382 19.4194Z"
    fill="white" />
  <path
    d="M32.0926 19.8082C32.5372 19.8082 32.5765 19.7372 32.5765 18.9373C32.5765 18.2218 32.5132 18.0664 32.2222 18.0664C32.0269 18.0664 31.8089 18.1245 31.7383 18.1955C31.6671 18.2663 31.6094 18.6582 31.6094 19.0664C31.6094 19.7287 31.661 19.8082 32.0926 19.8082Z"
    fill="white" />
  <path
    d="M34.5109 19.8082V18.0664H33.7692C33.3608 18.0664 32.9691 18.1245 32.8985 18.1955C32.8272 18.2663 32.7695 18.6582 32.7695 19.0664V19.8082H34.5109Z"
    fill="white" />
  <path
    d="M36.4475 19.8305V18.0664H35.6677C35.1734 18.0664 34.8486 18.1669 34.7823 18.3404C34.724 18.491 34.7055 18.8613 34.7399 19.1629C34.7964 19.658 34.8824 19.7172 35.6254 19.7708L36.4475 19.8305Z"
    fill="white" />
  <path
    d="M38.4236 19.4695C38.4611 19.2832 38.4574 18.8914 38.4162 18.5987C38.3487 18.1239 38.2603 18.0664 37.5996 18.0664C37.1919 18.0664 36.8265 18.1318 36.7866 18.2116C36.7467 18.2913 36.7307 18.4657 36.751 18.5987C36.7712 18.7318 36.7983 19.0583 36.8118 19.3244C36.8333 19.7542 36.9211 19.8082 37.5959 19.8082C38.1651 19.8082 38.3726 19.7231 38.4236 19.4695Z"
    fill="white" />
  <path
    d="M39.5923 19.7696C40.4127 19.7104 40.4145 19.7085 40.4145 18.9361C40.4145 18.1637 40.4127 18.1618 39.5923 18.1025L38.7695 18.043V19.8293L39.5923 19.7696Z"
    fill="white" />
  <path
    d="M42.3801 19.5636C42.4372 19.4715 42.4273 19.0968 42.3586 18.7312C42.2419 18.1069 42.1872 18.0664 41.4688 18.0664H40.7031V19.8239L41.4897 19.7775C41.9226 19.7519 42.323 19.6557 42.3801 19.5636Z"
    fill="white" />
  <path
    d="M43.51 19.7115C44.2824 19.7115 44.2849 19.7095 44.3439 18.8889L44.4034 18.0664H42.6172L42.6767 18.8889C42.7357 19.7095 42.7381 19.7115 43.51 19.7115Z"
    fill="white" />
  <path d="M46.3162 19.6147V18.0664H44.5742V19.6147H46.3162Z" fill="white" />
  <path
    d="M48.2536 19.6369V18.0664H46.4883L46.5485 18.7921C46.6068 19.4966 46.6326 19.5196 47.4308 19.5774L48.2536 19.6369Z"
    fill="white" />
  <path
    d="M50.1887 19.6147V18.8405C50.1887 18.0684 50.1869 18.0664 49.4261 18.0664C49.0067 18.0664 48.626 18.1318 48.58 18.2116C48.5339 18.2913 48.521 18.5745 48.5523 18.8405C48.583 19.1066 48.6156 19.3898 48.6248 19.4695C48.6334 19.5493 48.9889 19.6147 49.415 19.6147H50.1887Z"
    fill="white" />
  <path
    d="M57.7656 18.453C57.7656 18.7191 57.8098 18.828 57.8633 18.6949C57.9173 18.5619 57.9173 18.3442 57.8633 18.211C57.8098 18.0781 57.7656 18.1868 57.7656 18.453Z"
    fill="white" />
  <path
    d="M59.8877 20.9465C59.9012 20.7456 59.9227 20.429 59.9363 20.2426C59.9547 19.9854 59.7858 19.8894 59.2344 19.8439C58.745 19.8033 58.4994 19.8664 58.4798 20.0374C58.4638 20.1768 58.4398 20.5087 58.4276 20.7748C58.4147 21.0409 58.473 21.3086 58.5577 21.3696C58.6425 21.4307 58.9704 21.4425 59.2872 21.3961C59.6808 21.3384 59.8712 21.1957 59.8877 20.9465Z"
    fill="white" />
  <path
    d="M60.9464 20.8714C61.0133 20.6056 61.0176 20.2572 60.9562 20.0973C60.8948 19.9374 60.7548 19.8066 60.6449 19.8066C60.535 19.8066 60.4453 20.155 60.4453 20.5808C60.4453 21.0065 60.5307 21.3549 60.635 21.3549C60.7394 21.3549 60.88 21.1374 60.9464 20.8714Z"
    fill="white" />
  <path
    d="M32.1037 21.743C32.5667 21.743 32.5949 21.6892 32.5396 20.9222C32.4991 20.3675 32.3831 20.0829 32.1804 20.0445C32.0153 20.0133 31.8194 20.0488 31.7445 20.1235C31.6702 20.1982 31.6094 20.593 31.6094 21.0011C31.6094 21.6679 31.6591 21.743 32.1037 21.743Z"
    fill="white" />
  <path
    d="M41.2396 20.137C41.4803 20.1832 41.8284 20.1815 42.0139 20.1331C42.1987 20.0847 42.0016 20.0468 41.5761 20.0489C41.1499 20.0511 40.9989 20.0907 41.2396 20.137Z"
    fill="white" />
  <path
    d="M43.632 20.387C44.0987 20.387 44.359 20.3102 44.2866 20.1935C44.2209 20.0871 43.8187 20 43.3931 20C42.9259 20 42.6661 20.0768 42.7386 20.1935C42.8043 20.3 43.2065 20.387 43.632 20.387Z"
    fill="white" />
  <path
    d="M46.0547 20.9677C46.2045 20.9677 46.3162 20.7612 46.3162 20.4838C46.3162 20.0395 46.245 20 45.4449 20C44.8272 20 44.5742 20.0787 44.5742 20.2713C44.5742 20.4206 44.8487 20.6382 45.1833 20.7551C45.5186 20.8721 45.911 20.9677 46.0547 20.9677Z"
    fill="white" />
  <path
    d="M47.7217 21.5453C48.2142 21.548 48.2541 21.4904 48.2541 20.7741V20H47.4172C46.6054 20 46.5809 20.018 46.6079 20.596C46.6232 20.9239 46.7602 21.2709 46.9124 21.3671C47.0647 21.4635 47.4288 21.5436 47.7217 21.5453Z"
    fill="white" />
  <path d="M50.1886 21.5483V20H48.6406V21.5483H50.1886Z" fill="white" />
  <path d="M52.1261 21.5483V20H50.5781V21.5483H52.1261Z" fill="white" />
  <path d="M54.0597 21.5483V20H52.5117V21.5483H54.0597Z" fill="white" />
  <path
    d="M57.8093 21.3565C57.8498 21.3565 57.9223 21.0952 57.9689 20.7759C58.0156 20.4566 57.9824 20.1953 57.894 20.1953C57.8062 20.1953 57.7344 20.4566 57.7344 20.7759C57.7344 21.0952 57.7675 21.3565 57.8093 21.3565Z"
    fill="white" />
  <path
    d="M32.4009 23.7641C32.4979 23.7043 32.5765 23.3173 32.5765 22.9041C32.5765 22.4908 32.5114 22.1195 32.4316 22.0786C32.3517 22.0378 32.1344 22.0391 31.9477 22.0813C31.6978 22.1383 31.6094 22.3519 31.6094 22.8974C31.6094 23.3947 31.7101 23.6755 31.917 23.7548C32.0859 23.8198 32.3038 23.8239 32.4009 23.7641Z"
    fill="white" />
  <path
    d="M49.935 23.4838C50.102 23.4838 50.1886 23.2199 50.1886 22.7097V21.9355H49.4149C48.9433 21.9355 48.6406 22.0259 48.6406 22.1669C48.6406 22.2942 48.8746 22.6425 49.1607 22.941C49.4469 23.2396 49.795 23.4838 49.935 23.4838Z"
    fill="white" />
  <path d="M52.1261 23.4838V21.9355H50.5781V23.4838H52.1261Z" fill="white" />
  <path d="M54.0597 23.4838V21.9355H52.5117V23.4838H54.0597Z" fill="white" />
  <path
    d="M57.7891 22.7096C57.7891 23.1886 57.8271 23.3846 57.8732 23.145C57.9192 22.9054 57.9192 22.5137 57.8732 22.2741C57.8271 22.0345 57.7891 22.2306 57.7891 22.7096Z"
    fill="white" />
  <path
    d="M59.2522 23.3956C59.9325 23.3718 59.962 23.342 59.981 22.6532C60.0007 21.9381 59.9982 21.9355 59.2018 21.9355H58.4023L58.473 22.678C58.5417 23.3962 58.5669 23.4196 59.2522 23.3956Z"
    fill="white" />
  <path
    d="M60.6387 23.2903C60.7456 23.2903 60.8328 22.9855 60.8328 22.613C60.8328 22.2404 60.7456 21.9355 60.6387 21.9355C60.5325 21.9355 60.4453 22.2404 60.4453 22.613C60.4453 22.9855 60.5325 23.2903 60.6387 23.2903Z"
    fill="white" />
  <path
    d="M51.5766 25.4192C52.0887 25.4192 52.1261 25.367 52.1261 24.6452V23.8711H51.3518C50.8041 23.8711 50.5781 23.9533 50.5781 24.1523C50.5781 24.3069 50.6788 24.6553 50.8029 24.9264C50.9662 25.286 51.1756 25.4192 51.5766 25.4192Z"
    fill="white" />
  <path d="M54.0597 25.4192V23.8711H52.5117V25.4192H54.0597Z" fill="white" />
  <path
    d="M57.7849 25.3715C57.9181 25.3273 58.0391 25.0803 58.0545 24.8229C58.0692 24.5657 58.0207 24.2438 57.947 24.1077C57.8727 23.9717 57.7517 23.921 57.6781 23.9949C57.6038 24.0689 57.543 24.4269 57.543 24.7905C57.543 25.2333 57.6234 25.4249 57.7849 25.3715Z"
    fill="white" />
  <path
    d="M59.2375 25.3824C59.9357 25.3246 59.9639 25.2945 59.9694 24.5968C59.9756 23.885 59.9621 23.8711 59.2436 23.8711C58.5172 23.8711 58.5117 23.8767 58.5117 24.6568V25.4425L59.2375 25.3824Z"
    fill="white" />
  <path
    d="M60.4847 24.3559C60.4884 24.6752 60.532 24.7824 60.5811 24.5941C60.6302 24.4058 60.6265 24.1446 60.5737 24.0135C60.5209 23.8825 60.4804 24.0366 60.4847 24.3559Z"
    fill="white" />
  <path
    d="M32.3346 25.6603C32.4715 25.61 32.5765 25.244 32.5765 24.8179C32.5765 24.2164 32.5053 24.0645 32.2222 24.0645C32.0269 24.0645 31.8089 24.1225 31.7383 24.1935C31.6671 24.2644 31.6094 24.6055 31.6094 24.9514C31.6094 25.2974 31.7181 25.6186 31.8507 25.6646C31.9839 25.7113 32.2019 25.7095 32.3346 25.6603Z"
    fill="white" />
  <path
    d="M51.9405 27.3546C52.0406 27.3546 52.1223 27.0065 52.1223 26.5803C52.1223 25.9258 52.0602 25.8066 51.7201 25.8066C51.367 25.8066 51.3338 25.884 51.4524 26.4354C51.5267 26.7811 51.6255 27.1299 51.6728 27.2097C51.7195 27.2895 51.8398 27.3546 51.9405 27.3546Z"
    fill="white" />
  <path
    d="M53.2854 27.3546H54.0597V26.5803C54.0597 25.8324 54.0382 25.8066 53.415 25.8066C53.06 25.8066 52.7113 25.8644 52.6407 25.9356C52.5694 26.0062 52.5117 26.355 52.5117 26.7099C52.5117 27.3331 52.5375 27.3546 53.2854 27.3546Z"
    fill="white" />
  <path
    d="M57.6905 27.3189C57.9337 27.2723 58.0288 27.0684 58.0288 26.595C58.0288 26.2327 57.9367 25.9054 57.8238 25.868C57.7102 25.8305 57.5579 25.8594 57.4848 25.9324C57.4117 26.0055 57.3516 26.3623 57.3516 26.7252C57.3516 27.2489 57.4216 27.3705 57.6905 27.3189Z"
    fill="white" />
  <path
    d="M60.0837 27.3545L60.0235 26.6287C59.967 25.9429 59.924 25.8999 59.2375 25.8434L58.5117 25.7832V27.3545H60.0837Z"
    fill="white" />
  <path
    d="M32.1405 27.707C32.5378 27.7635 32.5759 27.6904 32.5759 26.8842C32.5759 26.0645 32.5397 26 32.081 26C31.6186 26 31.5904 26.0534 31.6456 26.8222C31.6954 27.5062 31.7789 27.6554 32.1405 27.707Z"
    fill="white" />
  <path
    d="M34.4906 27.3994C34.5698 27.2569 34.5975 26.8842 34.5514 26.5704C34.4753 26.0497 34.4016 26 33.7047 26H32.9414L33.001 26.8222C33.0581 27.6112 33.0863 27.645 33.7028 27.6511C34.0565 27.6548 34.4108 27.5412 34.4906 27.3994Z"
    fill="white" />
  <path d="M36.6398 27.548V26H34.8984V27.548H36.6398Z" fill="white" />
  <path d="M38.5773 27.548V26H36.8359V27.548H38.5773Z" fill="white" />
  <path d="M40.5115 27.548V26H38.7695V27.548H40.5115Z" fill="white" />
  <path
    d="M42.4441 26.8833C42.4441 26.2846 42.3833 26.1949 41.9762 26.1949C41.7189 26.1949 41.3714 26.1421 41.2037 26.0783C41.0244 26.0095 40.8525 26.0832 40.785 26.2576C40.7229 26.4209 40.7002 26.7561 40.7352 27.0036C40.7886 27.3818 40.9293 27.4623 41.6213 27.5126L42.4441 27.5722V26.8833Z"
    fill="white" />
  <path
    d="M44.3806 27.3724C44.3806 27.2747 44.0871 27.0131 43.7285 26.7915C43.3705 26.5704 43.0218 26.3887 42.9542 26.3887C42.8873 26.3887 42.832 26.6503 42.832 26.9695C42.832 27.5179 42.875 27.5498 43.6063 27.5498C44.0319 27.5498 44.3806 27.47 44.3806 27.3724Z"
    fill="white" />
  <path
    d="M51.9165 28.8055C52.0872 29.3692 52.0927 29.3618 52.1087 28.5635C52.1252 27.7549 52.0061 27.5074 51.8299 27.9827C51.7808 28.1159 51.8195 28.4862 51.9165 28.8055Z"
    fill="white" />
  <path
    d="M53.2864 29.2509C53.9176 29.1975 53.968 29.1434 54.0238 28.4674C54.0834 27.7539 54.073 27.7422 53.3951 27.7422C53.0162 27.7422 52.6994 27.7637 52.692 27.7901C52.684 27.8165 52.6625 28.1689 52.6435 28.5736C52.6097 29.3006 52.6165 29.3074 53.2864 29.2509Z"
    fill="white" />
  <path
    d="M57.5529 29.2907C58.119 29.2907 58.143 29.2587 58.0852 28.5649C58.0386 27.9969 57.936 27.8262 57.6161 27.7807C57.2925 27.7347 57.1814 27.8514 57.0837 28.3371C57.0162 28.6754 56.9609 29.0285 56.9609 29.1212C56.9609 29.2145 57.2274 29.2907 57.5529 29.2907Z"
    fill="white" />
  <path
    d="M59.9381 28.8548C60.0026 28.6153 60.056 28.2672 60.0572 28.0805C60.0597 27.814 59.8951 27.7422 59.286 27.7422H58.5117V28.5159C58.5117 29.2668 58.532 29.2902 59.1669 29.2902C59.6821 29.2902 59.8466 29.1974 59.9381 28.8548Z"
    fill="white" />
  <path
    d="M32.6032 29.252C32.6456 29.007 32.6505 28.6104 32.6143 28.3709C32.5719 28.0897 32.4147 27.9355 32.1691 27.9355C31.9603 27.9355 31.7424 28.0584 31.6846 28.2094C31.6263 28.3598 31.6079 28.7301 31.6423 29.0322C31.6865 29.4184 31.8265 29.5977 32.1157 29.6389C32.4166 29.6819 32.5474 29.5781 32.6032 29.252Z"
    fill="white" />
  <path
    d="M33.8342 29.5805C34.6067 29.5805 34.6085 29.5787 34.6681 28.7577L34.7276 27.9355H32.9414L33.001 28.7577C33.0599 29.5787 33.0618 29.5805 33.8342 29.5805Z"
    fill="white" />
  <path
    d="M36.3119 29.5222C36.5864 29.4676 36.649 29.3006 36.6024 28.743C36.5453 28.0571 36.5152 28.0313 35.7206 27.9742L34.8984 27.9141V28.6779C34.8984 29.3632 34.9525 29.4485 35.4302 29.5167C35.7231 29.5578 36.1198 29.5609 36.3119 29.5222Z"
    fill="white" />
  <path d="M38.5773 29.4835V27.9355H36.8359V29.4835H38.5773Z" fill="white" />
  <path
    d="M40.5106 29.5056V27.9355H38.7852L38.8251 28.6613C38.8644 29.3693 38.8852 29.3884 39.6884 29.4461L40.5106 29.5056Z"
    fill="white" />
  <path
    d="M41.6922 29.4835C42.4407 29.4835 42.4444 29.4798 42.4444 28.7092C42.4444 27.938 42.442 27.9355 41.6861 27.9355C41.2692 27.9355 40.8946 28.0362 40.8535 28.1597C40.8123 28.2831 40.8148 28.6319 40.8596 28.934C40.9321 29.4295 41.0137 29.4835 41.6922 29.4835Z"
    fill="white" />
  <path d="M44.3806 29.4835V27.9355H42.832V29.4835H44.3806Z" fill="white" />
  <path
    d="M45.0094 29.4333C45.1427 29.3879 45.2213 29.1417 45.1838 28.885C45.147 28.6289 45.0407 28.2888 44.948 28.1291C44.8332 27.9314 44.7773 28.1058 44.7736 28.6774C44.7693 29.2651 44.8399 29.491 45.0094 29.4333Z"
    fill="white" />
  <path
    d="M52.0148 31.2054C52.062 31.1588 52.1406 30.8966 52.1904 30.6233C52.2401 30.3495 52.2143 30.0179 52.1333 29.8865C52.0424 29.7403 51.9398 29.9295 51.8668 30.3783C51.8017 30.7805 51.7894 31.1502 51.8391 31.1999C51.8895 31.2496 51.9681 31.2527 52.0148 31.2054Z"
    fill="white" />
  <path
    d="M53.6758 30.729C53.7795 30.4563 53.8643 30.1604 53.8643 30.0726C53.8643 29.9848 53.7556 29.8755 53.6223 29.8306C53.4891 29.7858 53.2281 29.7827 53.0415 29.8239C52.7995 29.8779 52.7031 30.0885 52.7031 30.5626C52.7031 31.0992 52.7774 31.2257 53.0949 31.2257C53.3374 31.2257 53.5585 31.0366 53.6758 30.729Z"
    fill="white" />
  <path
    d="M58.1456 31.2251L58.0854 30.4993C58.0339 29.876 57.9528 29.7649 57.5113 29.7139C57.2288 29.6814 56.9562 29.725 56.9052 29.8109C56.8549 29.8969 56.7524 30.25 56.6781 30.5963L56.543 31.2251H58.1456Z"
    fill="white" />
  <path
    d="M59.5513 30.791C59.6151 30.5509 59.6692 30.2027 59.6704 30.0167C59.6723 29.7901 59.5237 29.6777 59.2215 29.6777C58.9729 29.6777 58.7119 29.7361 58.6413 29.8073C58.5701 29.8779 58.5117 30.2261 58.5117 30.581C58.5117 31.1318 58.5793 31.2263 58.9729 31.2263C59.2879 31.2263 59.4715 31.0882 59.5513 30.791Z"
    fill="white" />
  <path
    d="M32.2478 31.5785C32.7728 31.6387 32.7863 31.6166 32.7304 30.8042C32.6819 30.1061 32.6003 29.9575 32.238 29.9059C31.9862 29.8703 31.7566 29.9648 31.6927 30.1313C31.6319 30.2897 31.6111 30.6661 31.6454 30.9676C31.6952 31.4054 31.8174 31.5288 32.2478 31.5785Z"
    fill="white" />
  <path d="M34.6097 31.5166V29.968L32.9414 29.8477L33.0611 31.5166H34.6097Z" fill="white" />
  <path
    d="M35.772 31.5161C36.5445 31.5161 36.5463 31.5136 36.6059 30.6933L36.6654 29.8711H35.874C35.3698 29.8711 35.0444 29.9706 34.9775 30.145C34.9197 30.2954 34.9007 30.6657 34.9351 30.9671C34.9922 31.4676 35.0659 31.5161 35.772 31.5161Z"
    fill="white" />
  <path
    d="M38.045 31.451C38.5215 31.3828 38.5773 31.2963 38.5773 30.6233C38.5773 29.8797 38.5687 29.8711 37.8356 29.8711C37.4272 29.8711 37.0355 29.9288 36.9649 30C36.8937 30.0707 36.8359 30.4127 36.8359 30.7596C36.8359 31.206 36.9348 31.4105 37.1743 31.4584C37.3609 31.4958 37.7527 31.4921 38.045 31.451Z"
    fill="white" />
  <path
    d="M39.8234 31.4571C40.481 31.3804 40.5123 31.3429 40.5123 30.6239C40.5123 29.8778 40.505 29.8711 39.7601 29.8711C39.0755 29.8711 39.0006 29.9221 38.9244 30.4415C38.8784 30.7553 38.9066 31.1299 38.9877 31.2748C39.0835 31.4461 39.3745 31.51 39.8234 31.4571Z"
    fill="white" />
  <path d="M42.447 31.4191V29.8711H40.8984V31.4191H42.447Z" fill="white" />
  <path d="M44.3806 31.4191V29.8711H42.832V31.4191H44.3806Z" fill="white" />
  <path
    d="M44.8831 31.3699C44.9458 31.3073 45.0673 30.9444 45.1533 30.5637C45.2743 30.0252 45.2491 29.8711 45.0397 29.8711C44.8518 29.8711 44.7695 30.1167 44.7695 30.6773C44.7695 31.1207 44.8205 31.4326 44.8831 31.3699Z"
    fill="white" />
  <path
    d="M58.1455 33.1623L58.0854 32.4537C58.0295 31.7961 57.9791 31.7445 57.3804 31.7285C57.0255 31.7187 56.6989 31.7469 56.6547 31.7911C56.6098 31.8354 56.5742 32.162 56.5742 32.5169C56.5742 33.142 56.5982 33.1623 57.3596 33.1623H58.1455Z"
    fill="white" />
  <path
    d="M59.1651 32.556C59.232 32.2232 59.286 31.875 59.286 31.7817C59.286 31.6884 59.2209 31.6196 59.1411 31.6276C58.6806 31.6761 58.5117 31.91 58.5117 32.4995C58.5117 32.9318 58.6044 33.1608 58.7782 33.1608C58.9244 33.1608 59.0987 32.8888 59.1651 32.556Z"
    fill="white" />
  <path
    d="M32.1919 33.4521C32.6273 33.4521 32.6758 33.3741 32.6758 32.6778C32.6758 32.022 32.6095 31.8943 32.2398 31.8414C31.9862 31.8058 31.7572 31.9004 31.6927 32.0668C31.6319 32.2252 31.6111 32.6016 31.6454 32.9031C31.6958 33.3428 31.8045 33.4521 32.1919 33.4521Z"
    fill="white" />
  <path
    d="M34.6083 33.4525V32.6782C34.6083 31.9229 34.5904 31.9021 33.8806 31.8437C33.3759 31.802 33.1198 31.8708 33.0437 32.0691C32.9835 32.2263 32.9626 32.6021 32.997 32.9036C33.0548 33.404 33.1278 33.4525 33.834 33.4525H34.6083Z"
    fill="white" />
  <path
    d="M36.6655 33.5722L36.6053 32.7378C36.547 31.926 36.5267 31.9021 35.8181 31.8437C35.3134 31.802 35.0573 31.8708 34.9812 32.0691C34.921 32.2263 34.9001 32.6021 34.9345 32.9036C34.991 33.4003 35.0764 33.458 35.8316 33.5121L36.6655 33.5722Z"
    fill="white" />
  <path
    d="M37.8606 33.4203C38.5422 33.3098 38.576 33.2693 38.576 32.5558C38.576 31.8109 38.5717 31.8066 37.8017 31.8066C37.3246 31.8066 37.0188 31.8994 37.0034 32.0486C36.9899 32.1818 36.9844 32.5392 36.9912 32.8431C36.9979 33.1471 37.0354 33.4271 37.0741 33.4664C37.1134 33.5051 37.467 33.4842 37.8606 33.4203Z"
    fill="white" />
  <path d="M40.5089 33.3552V31.8066H38.9609V33.3552H40.5089Z" fill="white" />
  <path d="M42.447 33.3552V31.8066H40.8984V33.3552H42.447Z" fill="white" />
  <path
    d="M43.7512 32.7768C44.0976 32.5656 44.3806 32.261 44.3806 32.1001C44.3806 31.8871 44.1688 31.8066 43.6063 31.8066C42.8505 31.8066 42.832 31.8232 42.832 32.4845C42.832 32.8566 42.8977 33.1612 42.9776 33.1606C43.0574 33.1606 43.4055 32.9874 43.7512 32.7768Z"
    fill="white" />
  <path
    d="M52.1318 33.1766C52.1901 33.168 52.2024 32.8566 52.1588 32.4845C52.1152 32.1087 51.9703 31.8066 51.8352 31.8066C51.7001 31.8066 51.5355 32.0793 51.4686 32.4115C51.4023 32.7443 51.3477 33.0851 51.3477 33.1686C51.3477 33.2527 51.5005 33.292 51.6866 33.2564C51.8726 33.2208 52.0734 33.1845 52.1318 33.1766Z"
    fill="white" />
  <path
    d="M53.09 33.1121C53.09 33.0844 53.171 32.7799 53.2699 32.4348C53.4289 31.8809 53.4062 31.8066 53.0765 31.8066C52.7787 31.8066 52.7031 31.9442 52.7031 32.4845C52.7031 32.8566 52.7903 33.1618 52.8965 33.1618C53.0028 33.1618 53.09 33.1391 53.09 33.1121Z"
    fill="white" />
  <path
    d="M32.0447 35.4493C32.4113 35.3971 32.4801 35.2682 32.4801 34.632C32.4801 34.0714 32.396 33.8639 32.1546 33.8283C31.9753 33.8019 31.7795 33.8301 31.7193 33.8903C31.6585 33.9511 31.6094 34.3404 31.6094 34.7561C31.6094 35.4284 31.6567 35.5046 32.0447 35.4493Z"
    fill="white" />
  <path
    d="M51.4953 35.2539C52.188 35.1968 52.2223 35.1612 52.25 34.468C52.2776 33.7704 52.2543 33.7422 51.6415 33.7422C51.2393 33.7422 50.9611 33.8552 50.8868 34.0486C50.8223 34.2168 50.7695 34.5705 50.7695 34.8346C50.7695 35.2705 50.8359 35.3086 51.4953 35.2539Z"
    fill="white" />
  <path
    d="M52.7198 34.0489C52.729 34.2743 52.775 34.3204 52.8365 34.1662C52.8923 34.0262 52.8856 33.8592 52.8211 33.7954C52.7572 33.7309 52.7112 33.8451 52.7198 34.0489Z"
    fill="white" />
  <path
    d="M55.8755 35.0974C56.1045 35.0974 56.1887 34.9144 56.1887 34.4195C56.1887 34.0474 56.1015 33.7422 55.9952 33.7422C55.889 33.7422 55.8006 33.8515 55.7988 33.9841C55.7975 34.1174 55.7441 34.4219 55.6796 34.6614C55.5937 34.9819 55.6459 35.0974 55.8755 35.0974Z"
    fill="white" />
  <path
    d="M57.3479 35.0974C58.1038 35.0974 58.1222 35.0808 58.1222 34.4195C58.1222 33.7582 58.1038 33.7422 57.3479 33.7422C56.592 33.7422 56.5742 33.7582 56.5742 34.4195C56.5742 35.0808 56.592 35.0974 57.3479 35.0974Z"
    fill="white" />
  <path
    d="M49.5578 37.1888C50.2431 37.1317 50.2836 37.0918 50.2836 36.4673C50.2836 36.1038 50.1927 35.7759 50.081 35.7385C49.9692 35.7016 49.6426 35.9166 49.3552 36.2168C49.0672 36.5171 48.832 36.872 48.832 37.0059C48.832 37.1686 49.0727 37.2287 49.5578 37.1888Z"
    fill="white" />
  <path
    d="M52.0375 36.5552C52.1916 36.1862 52.3175 35.8374 52.3175 35.7809C52.3175 35.7238 51.9694 35.6777 51.5438 35.6777H50.7695V36.452C50.7695 37.1526 50.8162 37.2263 51.2632 37.2263C51.6439 37.2263 51.8214 37.0722 52.0375 36.5552Z"
    fill="white" />
  <path
    d="M55.5306 37.0323C56.1544 37.0323 56.1894 36.9967 56.1894 36.355C56.1894 35.7748 56.125 35.6777 55.7381 35.6777C55.3912 35.6777 55.2389 35.8343 55.0786 36.355L54.8711 37.0323H55.5306Z"
    fill="white" />
  <path
    d="M57.9362 36.5362C58.04 36.2629 58.1248 35.9584 58.1248 35.8589C58.1248 35.7594 57.7907 35.6777 57.383 35.6777C56.664 35.6777 56.6406 35.6992 56.6406 36.355C56.6406 36.9715 56.691 37.0323 57.1939 37.0323C57.6096 37.0323 57.7944 36.9095 57.9362 36.5362Z"
    fill="white" />
  <path
    d="M32.3984 36.9843C32.4064 36.7443 32.442 36.3961 32.4776 36.21C32.5249 35.9632 32.4162 35.8711 32.076 35.8711C31.6603 35.8711 31.6094 35.9564 31.6094 36.6454C31.6094 37.2907 31.6732 37.4197 31.9962 37.4197C32.2639 37.4197 32.388 37.2858 32.3984 36.9843Z"
    fill="white" />
  <path
    d="M47.6242 39.125C48.3132 39.0679 48.35 39.0304 48.35 38.3875C48.35 37.8545 48.2677 37.7004 47.9632 37.6636C47.7501 37.6378 47.4234 37.7078 47.2374 37.8183C47.0341 37.9386 46.8984 38.253 46.8984 38.6024C46.8984 39.1575 46.9328 39.1821 47.6242 39.125Z"
    fill="white" />
  <path
    d="M49.5578 39.1249C50.2468 39.0678 50.2836 39.0304 50.2836 38.3875C50.2836 37.744 50.2468 37.7071 49.5578 37.65L48.832 37.5898V39.1851L49.5578 39.1249Z"
    fill="white" />
  <path
    d="M51.3314 38.5521C51.448 38.2169 51.5438 37.8687 51.5438 37.7778C51.5438 37.6876 51.3694 37.6133 51.1564 37.6133C50.834 37.6133 50.7695 37.7422 50.7695 38.3876C50.7695 38.8131 50.8481 39.1619 50.9439 39.1619C51.0403 39.1619 51.2141 38.8874 51.3314 38.5521Z"
    fill="white" />
  <path
    d="M55.4289 39.0649C56.0577 39.0649 56.097 39.0249 56.1535 38.3391C56.2136 37.6139 56.213 37.6133 55.4571 37.6133C54.7062 37.6133 54.7006 37.6188 54.732 38.3391C54.7627 39.0305 54.7952 39.0649 55.4289 39.0649Z"
    fill="white" />
  <path
    d="M57.3324 38.3587C57.4496 38.0235 57.5448 37.7183 57.5448 37.6814C57.5448 37.644 57.3809 37.6133 57.1807 37.6133C56.9799 37.6133 56.7797 37.7656 56.7349 37.9522C56.6907 38.1383 56.687 38.4428 56.7269 38.6295C56.7668 38.8156 56.8718 38.9678 56.9596 38.9678C57.0481 38.9678 57.2157 38.694 57.3324 38.3587Z"
    fill="white" />
  <path
    d="M31.9962 39.3552C32.3186 39.3552 32.3831 39.2257 32.3831 38.5809C32.3831 37.9356 32.3186 37.8066 31.9962 37.8066C31.6732 37.8066 31.6094 37.9356 31.6094 38.5809C31.6094 39.2257 31.6732 39.3552 31.9962 39.3552Z"
    fill="white" />
  <path
    d="M46.2352 39.085C46.3832 39.0279 46.4526 38.8486 46.3893 38.6847C46.3267 38.5207 46.2192 38.3936 46.1511 38.4028C46.0823 38.4108 45.7213 38.5612 45.3492 38.7356L44.6719 39.0531L45.3191 39.1206C45.6752 39.1575 46.0872 39.1415 46.2352 39.085Z"
    fill="white" />
  <path
    d="M46.4275 40.4674C46.3986 40.1217 46.3624 39.773 46.347 39.6931C46.3323 39.6133 46.2543 39.5611 46.1745 39.5771C46.0947 39.5931 45.7901 39.6422 45.4972 39.687C45.0355 39.757 44.9648 39.8552 44.9648 40.4318C44.9648 41.076 44.9888 41.0962 45.7226 41.0962C46.4588 41.0962 46.4778 41.079 46.4275 40.4674Z"
    fill="white" />
  <path
    d="M47.6242 41.0601C48.315 41.003 48.3494 40.968 48.3402 40.3238C48.3341 39.8787 48.2346 39.6386 48.0498 39.6226C47.8956 39.6091 47.5739 39.6361 47.3338 39.6834C46.9819 39.7528 46.8984 39.8989 46.8984 40.4448C46.8984 41.1074 46.9132 41.1196 47.6242 41.0601Z"
    fill="white" />
  <path
    d="M50.404 41.0965L50.3438 40.3707C50.2897 39.7198 50.2228 39.6394 49.696 39.5878C49.373 39.5559 49.0463 39.5921 48.9702 39.6682C48.894 39.7444 48.832 40.0968 48.832 40.4517C48.832 41.0768 48.856 41.0965 49.618 41.0965H50.404Z"
    fill="white" />
  <path
    d="M53.769 41.095C54.1915 41.095 54.2529 41.0109 54.2529 40.4294C54.2529 40.0628 54.1804 39.7183 54.0914 39.6637C54.0024 39.6084 53.785 39.8675 53.6075 40.239C53.4301 40.6105 53.2852 40.9556 53.2852 41.0047C53.2852 41.0545 53.5031 41.095 53.769 41.095Z"
    fill="white" />
  <path
    d="M55.8808 40.9776C56.0767 40.9027 56.1866 40.6239 56.1866 40.2033C56.1866 39.5819 56.1504 39.5469 55.5093 39.5469C54.848 39.5469 54.832 39.5653 54.832 40.3212C54.832 40.9549 54.899 41.0949 55.2029 41.0949C55.4074 41.0949 55.7119 41.0421 55.8808 40.9776Z"
    fill="white" />
  <path
    d="M31.9962 41.2908C32.3186 41.2908 32.3831 41.1612 32.3831 40.5165C32.3831 40.0001 32.2971 39.7422 32.1252 39.7422C31.9833 39.7422 31.8089 39.8005 31.7383 39.8711C31.6671 39.9424 31.6094 40.2905 31.6094 40.6454C31.6094 41.1612 31.6867 41.2908 31.9962 41.2908Z"
    fill="white" />
  <path
    d="M40.5141 41.3141V40.5282C40.5141 39.7489 40.5079 39.7422 39.7883 39.7422C39.0785 39.7422 39.0625 39.7588 39.0625 40.468C39.0625 41.1667 39.0895 41.1956 39.7883 41.2539L40.5141 41.3141Z"
    fill="white" />
  <path
    d="M42.4469 41.3141V39.7422H40.875L40.9352 40.468C40.9923 41.1545 41.0347 41.1968 41.7211 41.2539L42.4469 41.3141Z"
    fill="white" />
  <path
    d="M43.7052 41.0967C44.35 41.0967 44.3825 41.0648 44.3825 40.4195C44.3825 39.7747 44.35 39.7422 43.7052 39.7422C43.0599 39.7422 43.0273 39.7747 43.0273 40.4195C43.0273 41.0648 43.0599 41.0967 43.7052 41.0967Z"
    fill="white" />
  <path
    d="M53.5874 43.0319C54.2653 43.0319 54.2757 43.0202 54.2162 42.3061C54.1695 41.7369 54.0731 41.5766 53.7691 41.5625C53.5567 41.5526 53.2736 41.5815 53.1404 41.6269C53.0071 41.6724 52.8984 42.007 52.8984 42.3705C52.8984 42.9993 52.9322 43.0319 53.5874 43.0319Z"
    fill="white" />
  <path
    d="M55.6082 42.4033C55.8194 42.0576 55.9919 41.715 55.9926 41.6419C55.9926 41.5694 55.7316 41.5172 55.4123 41.5264C54.8707 41.5418 54.832 41.5928 54.832 42.2872C54.832 42.6968 54.9204 43.0321 55.0285 43.0321C55.1366 43.0321 55.3976 42.749 55.6082 42.4033Z"
    fill="white" />
  <path
    d="M31.9962 43.2238C32.3186 43.2238 32.3831 43.0948 32.3831 42.4501C32.3831 41.9337 32.2971 41.6758 32.1252 41.6758C31.9833 41.6758 31.8089 41.7335 31.7383 41.8047C31.6671 41.876 31.6094 42.2241 31.6094 42.579C31.6094 43.0948 31.6867 43.2238 31.9962 43.2238Z"
    fill="white" />
  <path
    d="M39.8323 43.2238C40.4936 43.2238 40.5096 43.2053 40.5096 42.4501V41.6758H38.9297L39.0353 42.4016C39.093 42.8007 39.1434 43.1489 39.1477 43.1759C39.1514 43.2023 39.4596 43.2238 39.8323 43.2238Z"
    fill="white" />
  <path
    d="M41.7892 43.2238C42.426 43.2238 42.4456 43.201 42.4456 42.4501C42.4456 41.7016 42.4242 41.6758 41.8003 41.6758C41.4454 41.6758 41.1144 41.7163 41.0647 41.7667C41.0143 41.8164 41.0094 42.1652 41.0536 42.5403C41.1273 43.1728 41.1826 43.2238 41.7892 43.2238Z"
    fill="white" />
  <path
    d="M44.5041 42.7399C44.5372 42.5274 44.5182 42.2008 44.4611 42.0141C44.388 41.7765 44.1571 41.6758 43.6812 41.6758C43.0187 41.6758 43.0064 41.6899 43.0654 42.4016C43.1219 43.0862 43.163 43.1274 43.7844 43.1274C44.2941 43.1274 44.4574 43.0395 44.5041 42.7399Z"
    fill="white" />
  <path
    d="M45.6998 43.0303C46.4017 43.0303 46.4361 43.0003 46.4797 42.3531C46.5251 41.6838 46.5165 41.6758 45.7453 41.6758C44.9826 41.6758 44.9648 41.6911 44.9648 42.3531C44.9648 43.0082 44.9888 43.0303 45.6998 43.0303Z"
    fill="white" />
  <path
    d="M47.6727 43.0303C48.4286 43.0303 48.447 43.0144 48.447 42.3531C48.447 41.6917 48.4286 41.6758 47.6727 41.6758C46.9169 41.6758 46.8984 41.6917 46.8984 42.3531C46.8984 43.0144 46.9169 43.0303 47.6727 43.0303Z"
    fill="white" />
  <path
    d="M49.5044 42.4593C49.6665 42.1455 49.7997 41.8403 49.7997 41.782C49.7997 41.7237 49.5818 41.6758 49.3159 41.6758C48.8922 41.6758 48.832 41.7593 48.832 42.3531C48.832 42.7258 48.9168 43.0303 49.0205 43.0303C49.1243 43.0303 49.3423 42.7737 49.5044 42.4593Z"
    fill="white" />
  <path
    d="M31.9962 45.1593C32.3186 45.1593 32.3831 45.0304 32.3831 44.3856C32.3831 43.8692 32.2971 43.6113 32.1252 43.6113C31.9833 43.6113 31.8089 43.669 31.7383 43.7403C31.6671 43.8109 31.6094 44.1597 31.6094 44.5146C31.6094 45.0304 31.6867 45.1593 31.9962 45.1593Z"
    fill="white" />
  <path
    d="M39.8335 45.1593C40.4948 45.1593 40.5108 45.1409 40.5108 44.3856C40.5108 43.6298 40.4948 43.6113 39.8335 43.6113C39.1722 43.6113 39.1562 43.6298 39.1562 44.3856C39.1562 45.1409 39.1722 45.1593 39.8335 45.1593Z"
    fill="white" />
  <path
    d="M42.5478 44.9616C42.6153 44.8523 42.6135 44.5035 42.5441 44.1873C42.4336 43.685 42.3323 43.6113 41.7557 43.6113C41.1122 43.6113 41.0938 43.6328 41.0938 44.3856C41.0938 45.1384 41.1116 45.1593 41.7594 45.1593C42.1259 45.1593 42.4809 45.0703 42.5478 44.9616Z"
    fill="white" />
  <path
    d="M44.4918 44.579C44.4992 44.3126 44.4685 43.9865 44.423 43.8533C44.3782 43.72 44.0454 43.6113 43.6844 43.6113C43.0458 43.6113 43.0273 43.6328 43.0273 44.3967V45.1826L43.7531 45.1225C44.3782 45.0709 44.4808 44.9954 44.4918 44.579Z"
    fill="white" />
  <path
    d="M46.0781 45.0399C46.3403 45.059 46.4164 44.9122 46.4164 44.3872C46.4164 43.7437 46.3796 43.7062 45.6906 43.6497C44.9771 43.5902 44.9648 43.6006 44.9648 44.2785C44.9648 44.8305 45.0422 44.9724 45.3523 44.9914C45.5648 45.0049 45.8914 45.027 46.0781 45.0399Z"
    fill="white" />
  <path
    d="M48.3291 44.6595C48.3942 44.4912 48.447 44.1867 48.447 43.9822C48.447 43.6783 48.307 43.6113 47.6727 43.6113C46.9169 43.6113 46.8984 43.6273 46.8984 44.2886C46.8984 44.9297 46.9341 44.9659 47.5555 44.9659C47.9755 44.9659 48.2542 44.856 48.3291 44.6595Z"
    fill="white" />
  <path
    d="M51.8315 44.9659C52.2558 44.9659 52.3154 44.8824 52.3154 44.2886C52.3154 43.9159 52.2472 43.6113 52.1637 43.6113C52.0802 43.6113 51.8628 43.8643 51.6798 44.1732C51.4975 44.4826 51.3477 44.7872 51.3477 44.8505C51.3477 44.9143 51.5656 44.9659 51.8315 44.9659Z"
    fill="white" />
  <path
    d="M53.5757 44.9659C54.2211 44.9659 54.253 44.9333 54.253 44.2886C54.253 43.6433 54.2211 43.6113 53.5757 43.6113C52.931 43.6113 52.8984 43.6433 52.8984 44.2886C52.8984 44.9333 52.931 44.9659 53.5757 44.9659Z"
    fill="white" />
  <path
    d="M39.8335 47.0949C40.4948 47.0949 40.5108 47.0764 40.5108 46.3206C40.5108 45.5653 40.4948 45.5469 39.8335 45.5469C39.1722 45.5469 39.1562 45.5653 39.1562 46.3206C39.1562 47.0764 39.1722 47.0949 39.8335 47.0949Z"
    fill="white" />
  <path
    d="M42.4901 46.7565C42.5281 46.5699 42.5245 46.2217 42.4815 45.9822C42.4182 45.6316 42.2752 45.5469 41.7483 45.5469C41.1134 45.5469 41.0938 45.5702 41.0938 46.3206C41.0938 47.0734 41.1122 47.0949 41.7569 47.0949C42.2328 47.0949 42.4397 46.9991 42.4901 46.7565Z"
    fill="white" />
  <path
    d="M43.7531 47.0599C44.4427 47.0034 44.4789 46.9659 44.4789 46.3224C44.4789 45.6795 44.4427 45.6421 43.7531 45.5856L43.0273 45.5254V47.12L43.7531 47.0599Z"
    fill="white" />
  <path
    d="M45.7364 47.0002C46.3817 47.0002 46.4136 46.9677 46.4136 46.3223C46.4136 45.6776 46.3786 45.6426 45.6756 45.5842L44.9375 45.5234L44.9983 46.2615C45.056 46.9646 45.0916 47.0002 45.7364 47.0002Z"
    fill="white" />
  <path
    d="M47.0612 46.5146C47.1502 46.5146 47.3227 46.2966 47.4437 46.0307C47.6181 45.6482 47.6113 45.5469 47.4105 45.5469C47.2712 45.5469 47.0986 45.6046 47.0274 45.6758C46.9568 45.7464 46.8984 45.9644 46.8984 46.1597C46.8984 46.3549 46.9715 46.5146 47.0612 46.5146Z"
    fill="white" />
  <path
    d="M51.6382 46.9014C52.2836 46.9014 52.3155 46.8689 52.3155 46.2242C52.3155 45.5788 52.2836 45.5469 51.6382 45.5469C50.9935 45.5469 50.9609 45.5788 50.9609 46.2242C50.9609 46.8689 50.9935 46.9014 51.6382 46.9014Z"
    fill="white" />
  <path
    d="M53.5708 46.3304C53.7329 46.0166 53.8662 45.7114 53.8662 45.6531C53.8662 45.5948 53.6482 45.5469 53.3823 45.5469C52.9586 45.5469 52.8984 45.6304 52.8984 46.2242C52.8984 46.5969 52.9832 46.9014 53.087 46.9014C53.1907 46.9014 53.4081 46.6442 53.5708 46.3304Z"
    fill="white" />
  <path
    d="M32.0456 47.2526C32.3231 47.3054 32.3839 47.1746 32.3839 46.5287C32.3839 45.8612 32.3225 45.7402 31.9854 45.7402C31.6428 45.7402 31.5949 45.8428 31.6464 46.4642C31.6888 46.9701 31.8085 47.2078 32.0456 47.2526Z"
    fill="white" />
  <path
    d="M40.5532 48.8054C40.5949 48.682 40.5919 48.3332 40.5476 48.0299C40.4776 47.5552 40.388 47.4852 39.8986 47.5221C39.5861 47.546 39.2913 47.6049 39.2434 47.6528C39.1955 47.7007 39.1562 48.0299 39.1562 48.3848C39.1562 48.9902 39.1968 49.0301 39.8176 49.0301C40.1811 49.0301 40.512 48.9288 40.5532 48.8054Z"
    fill="white" />
  <path
    d="M42.6651 49.0309L42.6049 48.3051C42.5484 47.6186 42.5054 47.5763 41.8195 47.5192L41.0938 47.459V49.0309H42.6651Z"
    fill="white" />
  <path
    d="M43.7531 48.9941C44.4427 48.937 44.4789 48.9001 44.4789 48.2566C44.4789 47.6137 44.4427 47.5763 43.7531 47.5192L43.0273 47.459V49.0543L43.7531 48.9941Z"
    fill="white" />
  <path
    d="M45.8802 48.3531C46.1202 47.9835 46.3161 47.6365 46.3161 47.5819C46.3161 47.5266 46.0521 47.4824 45.7291 47.4824C45.3994 47.4824 45.096 47.6034 45.0365 47.7581C44.9781 47.9104 44.9591 48.2303 44.9941 48.4692C45.0291 48.708 45.1451 48.9309 45.2514 48.9641C45.3576 48.9979 45.6407 48.7228 45.8802 48.3531Z"
    fill="white" />
  <path
    d="M49.7046 48.8738C50.3303 48.8007 50.3825 48.7443 50.3825 48.1382C50.3825 47.6979 50.291 47.4824 50.105 47.4824C49.9527 47.4824 49.6481 47.7348 49.4277 48.0443C49.2079 48.3531 49.0273 48.6841 49.0273 48.7799C49.0273 48.875 49.3325 48.9174 49.7046 48.8738Z"
    fill="white" />
  <path
    d="M51.6382 48.837C52.2836 48.837 52.3155 48.8044 52.3155 48.1597C52.3155 47.5143 52.2836 47.4824 51.6382 47.4824C50.9935 47.4824 50.9609 47.5143 50.9609 48.1597C50.9609 48.8044 50.9935 48.837 51.6382 48.837Z"
    fill="white" />
  <path
    d="M32.0456 49.1881C32.3231 49.241 32.3839 49.1102 32.3839 48.4636C32.3839 47.7967 32.3225 47.6758 31.9854 47.6758C31.6428 47.6758 31.5949 47.7783 31.6464 48.3997C31.6888 48.9057 31.8085 49.1433 32.0456 49.1881Z"
    fill="white" />
  <path
    d="M41.8674 50.9667C42.619 50.9667 42.6417 50.947 42.6417 50.3096C42.6417 49.9486 42.533 49.6195 42.3998 49.5783C42.2672 49.5372 41.9184 49.5335 41.6255 49.5703C41.1613 49.6293 41.0938 49.7226 41.0938 50.3023C41.0938 50.9482 41.1146 50.9667 41.8674 50.9667Z"
    fill="white" />
  <path
    d="M44.2542 50.4658C44.4494 50.1974 44.5612 49.8517 44.5023 49.6976C44.4427 49.5441 44.2395 49.4281 44.0497 49.4403C43.86 49.4526 43.5523 49.5024 43.3663 49.5515C43.1268 49.6141 43.0273 49.8339 43.0273 50.3031C43.0273 50.8637 43.0949 50.965 43.4633 50.9601C43.7028 50.9564 44.0583 50.7341 44.2542 50.4658Z"
    fill="white" />
  <path
    d="M50.237 50.7977C50.3168 50.7842 50.3825 50.468 50.3825 50.0959C50.3825 49.4505 50.35 49.418 49.7046 49.418C49.0501 49.418 49.0273 49.4419 49.0273 50.153C49.0273 50.8333 49.0666 50.8855 49.5597 50.8554C49.8526 50.8376 50.1572 50.8118 50.237 50.7977Z"
    fill="white" />
  <path
    d="M51.2593 50.1069C51.4153 49.9 51.5436 49.6611 51.5436 49.5745C51.5436 49.4886 51.4128 49.418 51.2531 49.418C51.064 49.418 50.9652 49.6034 50.9688 49.9503C50.975 50.46 50.9873 50.4667 51.2593 50.1069Z"
    fill="white" />
  <path
    d="M32.7715 50.5152C32.7715 50.0835 32.6629 49.8041 32.4651 49.7286C32.2969 49.6641 32.0304 49.6113 31.8732 49.6113C31.6608 49.6113 31.6024 49.7986 31.6466 50.3371C31.6988 50.9671 31.7768 51.0709 32.2392 51.1237C32.7292 51.1802 32.7715 51.1317 32.7715 50.5152Z"
    fill="white" />
  <path
    d="M39.9305 50.9659C40.6858 50.9659 40.7042 50.9499 40.7042 50.2886C40.7042 49.6273 40.6858 49.6113 39.9305 49.6113C39.1747 49.6113 39.1562 49.6273 39.1562 50.2886C39.1562 50.9499 39.1747 50.9659 39.9305 50.9659Z"
    fill="white" />
  <path
    d="M48.0918 50.9659C48.3681 50.9659 48.4467 50.8161 48.4467 50.2886C48.4467 49.9159 48.4197 49.6113 48.3859 49.6113C48.3528 49.6113 48.1397 49.8625 47.9125 50.1701C47.6853 50.4771 47.5527 50.7817 47.6184 50.8474C47.6835 50.9125 47.8965 50.9659 48.0918 50.9659Z"
    fill="white" />
  <path
    d="M33.983 51.1224C34.6922 51.1814 34.7045 51.1709 34.7045 50.4936C34.7045 49.8188 34.6885 49.8047 33.9333 49.8047C33.1811 49.8047 33.1626 49.8207 33.2111 50.4335C33.2572 51.0094 33.3223 51.0678 33.983 51.1224Z"
    fill="white" />
  <path
    d="M36.7128 50.6981C36.6993 50.5262 36.6772 50.2548 36.6643 50.0951C36.6477 49.8968 36.4248 49.8047 35.9624 49.8047C35.3232 49.8047 35.2852 49.8409 35.2852 50.4519C35.2852 51.0794 35.3079 51.0985 36.0109 51.0555C36.5445 51.0229 36.7306 50.9284 36.7128 50.6981Z"
    fill="white" />
  <path
    d="M37.8999 50.9658C38.5238 50.9658 38.5772 50.9198 38.5772 50.385C38.5772 49.8507 38.5238 49.8047 37.8999 49.8047C37.2767 49.8047 37.2227 49.8507 37.2227 50.385C37.2227 50.9198 37.2767 50.9658 37.8999 50.9658Z"
    fill="white" />
  <path
    d="M48.445 52.2247C48.445 51.852 48.3793 51.5394 48.2995 51.5308C48.2197 51.5222 47.9587 51.4928 47.7192 51.4664C47.4798 51.44 47.2397 51.4614 47.1869 51.5149C47.1334 51.5683 47.0898 51.9017 47.0898 52.2566C47.0898 52.8651 47.1285 52.902 47.7677 52.902C48.4125 52.902 48.445 52.8694 48.445 52.2247Z"
    fill="white" />
  <path
    d="M49.7857 52.25C50.0073 51.8914 50.1885 51.5433 50.1885 51.4757C50.1885 51.4088 49.9275 51.3535 49.6082 51.3535C49.0599 51.3535 49.0273 51.3965 49.0273 52.1278C49.0273 52.5533 49.1072 52.9021 49.2054 52.9021C49.3031 52.9021 49.5646 52.6086 49.7857 52.25Z"
    fill="white" />
  <path
    d="M32.2388 53.0599C32.7423 53.1176 32.7711 53.0783 32.7711 52.3341C32.7711 51.6212 32.7251 51.5469 32.2811 51.5469C32.0116 51.5469 31.7432 51.6715 31.6849 51.8232C31.6266 51.9755 31.6075 52.3021 31.6425 52.549C31.6892 52.8756 31.8519 53.0156 32.2388 53.0599Z"
    fill="white" />
  <path
    d="M34.7491 52.8707C34.7902 52.7473 34.7878 52.3992 34.743 52.097C34.673 51.6169 34.579 51.5469 34.0074 51.5469C33.3712 51.5469 33.3516 51.5708 33.3516 52.3212C33.3516 53.0734 33.3706 53.0955 34.0129 53.0955C34.3764 53.0955 34.708 52.9942 34.7491 52.8707Z"
    fill="white" />
  <path
    d="M35.9139 53.0592C36.4887 53.004 36.5482 52.9358 36.6029 52.2727C36.6624 51.5592 36.652 51.5469 35.9741 51.5469C35.2974 51.5469 35.2852 51.561 35.2852 52.3335C35.2852 53.1041 35.2981 53.1188 35.9139 53.0592Z"
    fill="white" />
  <path
    d="M37.997 52.9021C38.7522 52.9021 38.7706 52.8861 38.7706 52.2248C38.7706 51.5635 38.7522 51.5469 37.997 51.5469C37.2411 51.5469 37.2227 51.5635 37.2227 52.2248C37.2227 52.8861 37.2411 52.9021 37.997 52.9021Z"
    fill="white" />
  <path
    d="M39.9305 52.9021C40.6858 52.9021 40.7042 52.8861 40.7042 52.2248C40.7042 51.5635 40.6858 51.5469 39.9305 51.5469C39.1747 51.5469 39.1562 51.5635 39.1562 52.2248C39.1562 52.8861 39.1747 52.9021 39.9305 52.9021Z"
    fill="white" />
  <path
    d="M41.8674 52.9021C42.6233 52.9021 42.6417 52.8861 42.6417 52.2248C42.6417 51.5635 42.6233 51.5469 41.8674 51.5469C41.1122 51.5469 41.0938 51.5635 41.0938 52.2248C41.0938 52.8861 41.1122 52.9021 41.8674 52.9021Z"
    fill="white" />
  <path
    d="M46.1971 52.9031C46.3696 52.9031 46.5109 52.7724 46.5109 52.6127C46.5109 52.4531 46.4777 52.3223 46.4378 52.3223C46.3973 52.3223 46.256 52.4531 46.1234 52.6127C45.9263 52.8503 45.9398 52.9031 46.1971 52.9031Z"
    fill="white" />
  <path
    d="M32.2388 54.9954C32.7423 55.0531 32.7711 55.0138 32.7711 54.2696C32.7711 53.5567 32.7251 53.4824 32.2811 53.4824C32.0116 53.4824 31.7432 53.6071 31.6849 53.7587C31.6266 53.9104 31.6075 54.2377 31.6425 54.4845C31.6892 54.8112 31.8519 54.9512 32.2388 54.9954Z"
    fill="white" />
  <path
    d="M34.0289 55.031C34.6902 55.031 34.7061 55.0126 34.7061 54.2567C34.7061 53.5008 34.6902 53.4824 34.0289 53.4824C33.3675 53.4824 33.3516 53.5008 33.3516 54.2567C33.3516 55.0126 33.3675 55.031 34.0289 55.031Z"
    fill="white" />
  <path
    d="M36.0109 54.9942C36.6974 54.9377 36.7398 54.8947 36.7969 54.2082L36.8571 53.4824H35.2852V55.0544L36.0109 54.9942Z"
    fill="white" />
  <path
    d="M38.0086 54.837C38.7798 54.837 38.794 54.8241 38.7344 54.2076C38.6792 53.6334 38.611 53.5733 37.9484 53.5186C37.2343 53.4597 37.2227 53.4695 37.2227 54.148C37.2227 54.8241 37.2368 54.837 38.0086 54.837Z"
    fill="white" />
  <path
    d="M40.4721 54.6049C40.5998 54.4772 40.7042 54.1726 40.7042 53.9276C40.7042 53.5371 40.6091 53.4824 39.9305 53.4824C39.1747 53.4824 39.1562 53.4984 39.1562 54.1597C39.1562 54.7731 39.2078 54.8376 39.6978 54.8376C39.9962 54.8376 40.3444 54.7326 40.4721 54.6049Z"
    fill="white" />
  <path
    d="M45.8335 54.8376C46.4783 54.8376 46.5108 54.8051 46.5108 54.1597C46.5108 53.5451 46.4598 53.4824 45.9625 53.4824C45.661 53.4824 45.3558 53.5408 45.2852 53.612C45.214 53.6826 45.1562 53.9872 45.1562 54.2893C45.1562 54.7866 45.2189 54.8376 45.8335 54.8376Z"
    fill="white" />
  <path
    d="M48.1435 54.4072C48.3093 54.1708 48.445 53.8656 48.445 53.7299C48.445 53.5764 48.1884 53.4824 47.7677 53.4824C47.1224 53.4824 47.0898 53.515 47.0898 54.1597C47.0898 54.7019 47.1654 54.8376 47.4662 54.8376C47.6732 54.8376 47.9777 54.6436 48.1435 54.4072Z"
    fill="white" />
  <path
    d="M44.3713 54.8367C44.4843 54.8367 44.5764 54.7495 44.5764 54.6426C44.5764 54.5364 44.5383 54.4492 44.491 54.4492C44.4438 54.4492 44.3517 54.5364 44.286 54.6426C44.2202 54.7495 44.2589 54.8367 44.3713 54.8367Z"
    fill="white" />
  <path
    d="M32.1896 56.9666C32.738 56.9666 32.7705 56.9236 32.7705 56.1923C32.7705 55.5101 32.7165 55.418 32.3186 55.418C32.0705 55.418 31.8089 55.4763 31.7383 55.5469C31.6671 55.6181 31.6094 55.9663 31.6094 56.3212C31.6094 56.9089 31.661 56.9666 32.1896 56.9666Z"
    fill="white" />
  <path
    d="M34.0774 56.9296C34.7663 56.8725 34.8031 56.8351 34.8031 56.1922C34.8031 55.5493 34.7663 55.5118 34.0774 55.4547L33.3516 55.3945V56.9898L34.0774 56.9296Z"
    fill="white" />
  <path
    d="M36.0109 56.9296C36.6999 56.8725 36.7367 56.8351 36.7367 56.1922C36.7367 55.5493 36.6999 55.5118 36.0109 55.4547L35.2852 55.3945V56.9898L36.0109 56.9296Z"
    fill="white" />
  <path
    d="M38.2966 56.5699C38.5576 56.3249 38.7706 55.9657 38.7706 55.7717C38.7706 55.488 38.6171 55.418 37.997 55.418C37.2399 55.418 37.2227 55.4333 37.2227 56.1014C37.2227 56.5404 37.3301 56.826 37.5229 56.9003C37.6961 56.9666 38.0234 56.8266 38.2966 56.5699Z"
    fill="white" />
  <path
    d="M43.8999 56.7725C44.5447 56.7725 44.5772 56.7406 44.5772 56.0952C44.5772 55.5174 44.5115 55.418 44.132 55.418C43.887 55.418 43.5825 55.5224 43.4548 55.6501C43.327 55.7778 43.2227 56.083 43.2227 56.328C43.2227 56.7074 43.3221 56.7725 43.8999 56.7725Z"
    fill="white" />
  <path
    d="M45.785 56.7369C46.3383 56.6835 46.4212 56.6 46.4746 56.0467C46.5329 55.4438 46.5071 55.418 45.8458 55.418C45.1845 55.418 45.1562 55.4462 45.1562 56.1075C45.1562 56.7688 45.1814 56.7946 45.785 56.7369Z"
    fill="white" />
  <path
    d="M32.2633 58.901C32.8958 58.901 32.9167 58.8764 32.8896 58.1758C32.8669 57.5968 32.7834 57.4463 32.477 57.4316C32.2658 57.4218 31.9839 57.4506 31.8507 57.4961C31.7181 57.5415 31.6094 57.8762 31.6094 58.2403C31.6094 58.8623 31.6474 58.901 32.2633 58.901Z"
    fill="white" />
  <path
    d="M34.8062 58.7038C34.8731 58.5945 34.8719 58.2463 34.8019 57.9295C34.6994 57.4604 34.5766 57.3535 34.1424 57.3535C33.8496 57.3535 33.5517 57.4118 33.4805 57.4825C33.4099 57.5537 33.3516 57.9018 33.3516 58.2568C33.3516 58.8628 33.3921 58.9015 34.0178 58.9015C34.3838 58.9015 34.7387 58.8125 34.8062 58.7038Z"
    fill="white" />
  <path
    d="M36.1069 58.3396C36.5061 57.9884 36.8327 57.6225 36.8327 57.5267C36.8327 57.4315 36.5251 57.3535 36.1493 57.3535C35.7379 57.3535 35.4235 57.4628 35.3603 57.6274C35.3026 57.7784 35.2835 58.1438 35.3179 58.4397L35.3812 58.9789L36.1069 58.3396Z"
    fill="white" />
  <path
    d="M41.9624 58.7081C42.6072 58.7081 42.6397 58.6761 42.6397 58.0308C42.6397 57.453 42.5746 57.3535 42.1945 57.3535C41.9495 57.3535 41.645 57.4579 41.5173 57.5856C41.3895 57.7133 41.2852 58.0185 41.2852 58.2629C41.2852 58.643 41.3846 58.7081 41.9624 58.7081Z"
    fill="white" />
  <path
    d="M43.8999 58.7081C44.5447 58.7081 44.5772 58.6761 44.5772 58.0308C44.5772 57.3861 44.5447 57.3535 43.8999 57.3535C43.2546 57.3535 43.2227 57.3861 43.2227 58.0308C43.2227 58.6761 43.2546 58.7081 43.8999 58.7081Z"
    fill="white" />
  <path
    d="M33.9324 59.9349C34.2517 59.7464 34.5127 59.5235 34.5127 59.44C34.5127 59.3565 34.4912 59.3012 34.4642 59.3172C34.4378 59.3332 34.1762 59.3823 33.8839 59.4271C33.5088 59.4836 33.3516 59.6211 33.3516 59.8925C33.3516 60.2677 33.3669 60.269 33.9324 59.9349Z"
    fill="white" />
  <path
    d="M40.0405 60.8364C40.7184 60.8364 40.7288 60.8247 40.6693 60.1106C40.6189 59.4971 40.5336 59.3762 40.1185 59.3277C39.8483 59.2964 39.5652 59.3326 39.4897 59.4087C39.4136 59.4842 39.3516 59.8367 39.3516 60.1916C39.3516 60.802 39.3884 60.8364 40.0405 60.8364Z"
    fill="white" />
  <path
    d="M42.4948 60.6743C42.5746 60.6571 42.6397 60.3391 42.6397 59.9663C42.6397 59.3216 42.6072 59.2891 41.9624 59.2891C41.3054 59.2891 41.2852 59.3118 41.2852 60.0345C41.2852 60.7271 41.322 60.7769 41.8175 60.7419C42.1098 60.7216 42.415 60.6909 42.4948 60.6743Z"
    fill="white" />
  <path
    d="M32.2173 60.8008C32.7447 60.7486 32.8344 60.6571 32.8927 60.1112C32.9578 59.5088 32.932 59.4824 32.2848 59.4824C31.6395 59.4824 31.6094 59.5131 31.6094 60.172C31.6094 60.829 31.6376 60.8591 32.2173 60.8008Z"
    fill="white" />
  <path
    d="M38.3588 60.8381C38.5946 60.8381 38.769 60.7146 38.769 60.5482C38.769 60.3886 38.6928 60.2578 38.5995 60.2578C38.5062 60.2578 38.3214 60.3886 38.1887 60.5482C37.9873 60.7908 38.0149 60.8381 38.3588 60.8381Z"
    fill="white" />
  <path
    d="M38.0913 62.7725C38.7367 62.7725 38.7686 62.7406 38.7686 62.0953C38.7686 61.4505 38.7367 61.418 38.0913 61.418C37.4466 61.418 37.4141 61.4505 37.4141 62.0953C37.4141 62.7406 37.4466 62.7725 38.0913 62.7725Z"
    fill="white" />
  <path
    d="M40.0288 62.7725C40.6742 62.7725 40.7061 62.7406 40.7061 62.0953C40.7061 61.4505 40.6742 61.418 40.0288 61.418C39.3841 61.418 39.3516 61.4505 39.3516 62.0953C39.3516 62.7406 39.3841 62.7725 40.0288 62.7725Z"
    fill="white" />
  <path
    d="M36.1086 62.7703C36.754 62.771 36.8344 62.7175 36.8344 62.2871C36.8344 62.0212 36.7687 61.8063 36.6889 61.8106C36.609 61.8143 36.2824 62.0317 35.9631 62.2932L35.3828 62.7691L36.1086 62.7703Z"
    fill="white" />
  <path
    d="M34.2318 64.7081C34.8642 64.7081 34.898 64.6737 34.898 64.0308C34.898 63.5899 34.8065 63.3535 34.6358 63.3535C34.4915 63.3535 34.1384 63.5715 33.8511 63.838C33.5631 64.1045 33.3813 64.4097 33.447 64.5153C33.5121 64.6215 33.8652 64.7081 34.2318 64.7081Z"
    fill="white" />
  <path
    d="M36.1577 64.7081C36.8031 64.7081 36.8356 64.6755 36.8356 64.0308C36.8356 63.3854 36.8031 63.3535 36.1577 63.3535C35.513 63.3535 35.4805 63.3854 35.4805 64.0308C35.4805 64.6755 35.513 64.7081 36.1577 64.7081Z"
    fill="white" />
  <path
    d="M38.259 64.3071C38.5396 64.0867 38.7686 63.7815 38.7686 63.6298C38.7686 63.4432 38.5494 63.3535 38.0913 63.3535C37.4466 63.3535 37.4141 63.3854 37.4141 64.0308C37.4141 64.4035 37.4896 64.7081 37.5817 64.7081C37.6738 64.7081 37.9784 64.5275 38.259 64.3071Z"
    fill="white" />
  <path
    d="M32.4328 66.6982C32.8872 66.611 32.9639 66.5023 32.9639 65.9417C32.9639 65.3516 32.9099 65.2871 32.4156 65.2871C32.1141 65.2871 31.8089 65.3448 31.7383 65.4161C31.6671 65.4867 31.6094 65.7863 31.6094 66.0817C31.6094 66.377 31.6751 66.6595 31.7555 66.7092C31.836 66.759 32.1405 66.754 32.4328 66.6982Z"
    fill="white" />
  <path
    d="M34.2523 66.6417C34.8608 66.6417 34.8976 66.603 34.8976 65.9644C34.8976 65.3233 34.862 65.2871 34.2418 65.2871C33.6616 65.2871 33.5768 65.3534 33.5013 65.8686C33.454 66.1885 33.4589 66.4937 33.5117 66.5459C33.5639 66.5987 33.8973 66.6417 34.2523 66.6417Z"
    fill="white" />
  <path
    d="M35.626 66.2488C35.7052 66.2451 36.0325 66.0277 36.3518 65.7662L36.932 65.2903L36.2063 65.2891C35.5609 65.2885 35.4805 65.3419 35.4805 65.7723C35.4805 66.0382 35.5462 66.2531 35.626 66.2488Z"
    fill="white" />
  <path
    d="M32.3966 68.4164C32.757 68.2114 32.9621 67.9375 32.9627 67.66C32.9633 67.3106 32.8553 67.2246 32.4156 67.2246C32.1141 67.2246 31.8089 67.2823 31.7383 67.3536C31.6671 67.4242 31.6094 67.7146 31.6094 67.9983C31.6094 68.2826 31.6591 68.5644 31.7205 68.6258C31.7819 68.6872 32.0859 68.5933 32.3966 68.4164Z"
    fill="white" />
  <path
    d="M33.737 67.6114C33.8432 67.6114 33.9304 67.5243 33.9304 67.418C33.9304 67.3112 33.8432 67.2246 33.737 67.2246C33.6302 67.2246 33.543 67.3112 33.543 67.418C33.543 67.5243 33.6302 67.6114 33.737 67.6114Z"
    fill="white" />
</svg>